<?xml version="1.0" encoding="UTF-8" standalone="no"?>
<svg
   xmlns:dc="http://purl.org/dc/elements/1.1/"
   xmlns:cc="http://creativecommons.org/ns#"
   xmlns:rdf="http://www.w3.org/1999/02/22-rdf-syntax-ns#"
   xmlns:svg="http://www.w3.org/2000/svg"
   xmlns="http://www.w3.org/2000/svg"
   xmlns:xlink="http://www.w3.org/1999/xlink"
   width="1000"
   height="190"
   id="svg2"
   version="1.1">
  <defs
     id="defs4">
    <pattern
       patternTransform="translate(-2e-6,0)"
       id="pattern18828"
       xlink:href="#sepia_grunge" />
    <pattern
       patternTransform="matrix(1.0417187,0,0,1.0417187,-2.336328e-5,-0.5967879)"
       xlink:href="#sepia_grunge"
       id="pattern25625" />
    <pattern
       patternUnits="userSpaceOnUse"
       width="400"
       height="400"
       patternTransform="translate(0,0) scale(1,1)"
       id="sepia_grunge">
      <g
         id="sepia_grunge_pattern"
         transform="translate(0,-652.36216)">
        <title
           id="title10108">sepia grunge pattern</title>
        <rect
           style="color:#000000;clip-rule:nonzero;display:inline;overflow:visible;visibility:visible;opacity:1;isolation:auto;mix-blend-mode:normal;color-interpolation:sRGB;color-interpolation-filters:linearRGB;solid-color:#000000;solid-opacity:1;fill:#8d706f;fill-opacity:1;fill-rule:nonzero;stroke:none;stroke-width:4;stroke-linecap:butt;stroke-linejoin:miter;stroke-miterlimit:4;stroke-dasharray:none;stroke-dashoffset:0;stroke-opacity:1;marker:none;marker-start:none;marker-mid:none;marker-end:none;color-rendering:auto;image-rendering:auto;shape-rendering:auto;text-rendering:auto;enable-background:accumulate"
           id="rect10080"
           width="97.984795"
           height="76.771591"
           x="135.36044"
           y="769.51947" />
        <rect
           y="970.53986"
           x="46.467018"
           height="76.771591"
           width="97.984795"
           id="rect10082"
           style="color:#000000;clip-rule:nonzero;display:inline;overflow:visible;visibility:visible;opacity:1;isolation:auto;mix-blend-mode:normal;color-interpolation:sRGB;color-interpolation-filters:linearRGB;solid-color:#000000;solid-opacity:1;fill:#8d706f;fill-opacity:1;fill-rule:nonzero;stroke:none;stroke-width:4;stroke-linecap:butt;stroke-linejoin:miter;stroke-miterlimit:4;stroke-dasharray:none;stroke-dashoffset:0;stroke-opacity:1;marker:none;marker-start:none;marker-mid:none;marker-end:none;color-rendering:auto;image-rendering:auto;shape-rendering:auto;text-rendering:auto;enable-background:accumulate" />
        <path
           style="color:#000000;clip-rule:nonzero;display:inline;overflow:visible;visibility:visible;opacity:1;isolation:auto;mix-blend-mode:normal;color-interpolation:sRGB;color-interpolation-filters:linearRGB;solid-color:#000000;solid-opacity:1;fill:#6b5453;fill-opacity:1;fill-rule:nonzero;stroke:none;stroke-width:4;stroke-linecap:butt;stroke-linejoin:miter;stroke-miterlimit:4;stroke-dasharray:none;stroke-dashoffset:0;stroke-opacity:1;marker:none;marker-start:none;marker-mid:none;marker-end:none;color-rendering:auto;image-rendering:auto;shape-rendering:auto;text-rendering:auto;enable-background:accumulate"
           d="m 0,0 0,400 347.14258,0 41.42969,0 L 400,400 400,0 0,0 Z m 360.80078,16.597656 c 1.47694,0.31156 2.32316,0.918728 2.7832,1.705078 -0.61619,0.72806 -1.08406,1.481288 -0.63281,2.392578 l 2.45703,-0.291015 c -0.49824,0.97268 -1.22519,1.571901 -1.27539,3.275391 -1.58351,0.623229 -2.74097,0.48187 -3.44726,-0.47461 -0.0784,-3.6658 0.0249,-5.077732 0.11523,-6.607422 z m 15.40625,10.271485 c 4.06936,0.0335 5.63212,0.195183 7.32617,0.345703 -0.3942,1.62825 -1.09492,2.544787 -1.98242,3.029297 -0.78744,-0.70755 -1.607,-1.249957 -2.63281,-0.779297 l 0.24219,2.736328 c -1.06271,-0.58473 -1.70556,-1.411758 -3.59375,-1.523438 -0.63934,-1.77722 -0.4437,-3.056493 0.64062,-3.808593 z m -254.81445,26.74414 c 12.13716,1.877063 3.62058,15.892499 -0.92383,13.023438 -0.0295,0.08857 -0.0643,0.202349 -0.0937,0.291015 -0.88972,-0.45129 -1.32499,-0.98184 -1.48438,-1.5625 0.11062,-0.07682 0.21278,-0.157489 0.31055,-0.240234 -0.19352,-0.379473 -0.3681,-0.815093 -0.51562,-1.326172 l -0.60157,-0.08789 c 0.15123,-0.167333 0.30931,-0.31211 0.4668,-0.458985 -0.22134,-0.947016 -0.37416,-2.071733 -0.41992,-3.449219 7.56391,1.6754 1.1637,-3.375803 3.26172,-6.189453 z m -5.3418,2.851563 c 0.11006,-0.01747 0.22489,-0.0098 0.34375,0.01953 0.98906,1.14115 1.32751,1.614427 1.70117,2.123047 -0.55001,0.28979 -0.97741,0.319586 -1.33008,0.191406 0.004,-0.3928 -0.047,-0.753738 -0.42968,-0.923828 l -0.70117,0.738281 c -0.098,-0.43932 -0.0267,-0.820027 -0.45899,-1.373047 0.2534,-0.46056 0.54483,-0.722987 0.875,-0.77539 z m 186.43164,0.335937 c 10.45295,3.635998 6.15955,5.108803 2.17188,4.558594 -0.005,0.02383 -0.007,0.04857 -0.0117,0.07227 -1.29637,0.17235 -2.46512,0.508279 -2.8457,1.849609 l 2.76562,1.966797 c -0.39876,0.150621 -0.79037,0.26002 -1.18164,0.371094 0.49273,0.579384 0.64888,1.202279 0.44141,1.871093 -2.60933,2.00566 -3.68557,2.679815 -4.83985,3.427735 -0.27501,-0.605966 -0.41584,-1.138261 -0.45117,-1.613281 -0.24059,0.06683 -0.4923,0.10901 -0.76367,0.107421 l 0,-0.002 c -1.76173,-1.259431 -2.96978,-2.169984 -3.94727,-2.935547 -0.49703,0.206104 -0.92462,0.463267 -0.93359,1.03711 l 1.31055,0.490234 c -0.50293,0.36005 -1.02317,0.47447 -1.49024,1.318359 -0.95819,-0.09722 -1.50415,-0.470435 -1.61133,-1.134765 0.70804,-1.447877 1.09978,-2.13829 1.45508,-2.744141 -0.51649,-0.425901 -1.07142,-0.874491 -1.53711,-1.267578 1.4665,-1.28844 2.74918,-1.69501 3.91992,-1.5625 0.27688,1.20203 0.69497,2.271426 1.98829,2.509766 l 0.30664,-0.53125 c -0.0508,-0.269476 -0.0748,-0.548831 -0.0449,-0.845703 1.62347,-1.870299 2.78271,-3.138201 3.72657,-4.125 -0.3563,-0.729222 -0.007,-1.669543 1.57226,-2.81836 z m 50.5293,3.289063 c 13.31604,4.15781 -5.73809,5.97461 0,0 z m -223.72266,0.998047 c 0.47283,0.12797 0.73643,0.340305 0.8711,0.603515 -0.21296,0.22462 -0.37953,0.460152 -0.25,0.763672 l 0.80273,-0.04883 c -0.17923,0.30604 -0.42721,0.486079 -0.47461,1.037109 -0.52447,0.17297 -0.89608,0.106035 -1.10742,-0.216797 0.0418,-1.189149 0.1013,-1.644651 0.1582,-2.138671 z m 171.36719,5.941406 c -0.0981,0.253267 -0.20833,0.479818 -0.32422,0.693359 0.18379,-0.12538 0.34544,-0.294769 0.4707,-0.537109 l -0.14648,-0.15625 z m -239.048828,3 c 0.418221,0.02732 0.704254,0.174513 0.867187,0.611328 0.15869,0.72138 0.74594,1.715144 0.34375,2.308594 -0.89164,-0.11118 -1.274461,-0.528094 -1.488281,0.285156 -0.0817,0.5996 0.752318,1.240907 0.01758,1.748047 -0.77909,-0.41427 -0.767682,-0.03368 -1.826172,-1.234375 0.21134,-1.81826 -0.212773,-1.841513 0.878907,-3.257813 0.0434,-0.12596 0.03658,-0.264318 -0.01172,-0.386718 0.279372,-0.02617 0.530548,-0.05303 0.755859,-0.06836 0.168984,-0.0115 0.323484,-0.01496 0.462891,-0.0059 z m -3.009766,17.75 c 2.49752,3.13 3.133933,1.530453 5.376953,8.439453 -3.868483,6.68935 -2.734567,7.92893 -8.259765,11.22852 l 0,-12.763676 c 0.980998,-2.395516 -0.871579,-6.160776 2.882812,-6.904297 z m 6.00586,16.923823 c 1.57226,0.59714 1.686905,0.22275 2.703125,1.51368 0.10247,0.0669 0.225813,0.0917 0.345703,0.0762 -0.1583,1.019 -0.188323,1.65487 -0.945313,1.73828 -0.6783,-0.0208 -1.696535,0.27888 -2.134765,-0.21289 0.29954,-0.7693 0.756468,-1.01533 0.08008,-1.38867 -0.51578,-0.2076 -1.273987,0.38969 -1.560547,-0.37891 0.54424,-0.60088 0.204059,-0.67468 1.511719,-1.34766 z m 121.277344,28.18946 c 1.2578,-0.017 2.07248,0.41633 2.41992,1.32422 -0.84481,3.32023 -1.2905,4.56517 -1.7539,5.91992 -1.25202,-0.64937 -1.86224,-1.40561 -2.08008,-2.22852 0.73667,-0.50164 1.34671,-1.06484 1.16797,-1.99804 l -2.28711,-0.35157 c 0.69152,-0.75138 1.4962,-1.10957 1.96679,-2.63086 0.19768,-0.0207 0.38672,-0.0327 0.56641,-0.0351 z m -8.94727,4.07617 c 1.66158,0.81535 2.39718,1.84855 2.14649,3.11719 -0.15751,0.15001 -0.26234,0.24319 -0.41016,0.38281 7.35293,5.06658 -3.41206,6.31454 1.13672,13.07031 -6.42708,1.93028 -9.43429,-7.62269 -6.82226,-12.00195 0.015,-0.0603 0.0149,-0.12662 0.0332,-0.18555 0.0275,-0.001 0.0527,-0.007 0.0801,-0.008 0.46769,-0.7112 1.09337,-1.26976 1.89257,-1.59375 l -1.62304,-1.4043 c 1.14676,-0.31276 2.16099,-0.16842 3.5664,-1.37695 z m 178.74805,7.36914 c 0.29788,-0.0131 0.64955,-0.0121 1.06055,0.006 8.29002,3.53835 5.70914,7.70879 2.46875,9.25586 0.0526,0.18846 0.12513,0.3786 0.24414,0.57227 l 3.14258,-0.66797 c -0.52891,1.316 -1.39635,2.17921 -1.25977,4.38671 -1.97281,0.99269 -3.48779,0.94559 -4.51367,-0.20703 -0.15915,-1.4074 -0.26347,-2.5052 -0.34766,-3.48047 -1.59126,-0.1453 -2.42236,-1.47179 -0.53906,-4.60937 0.11626,-0.0642 0.18546,-0.13635 0.26758,-0.20703 -0.002,-0.078 -0.009,-0.17756 -0.0117,-0.25586 0.0822,0.01 0.1549,0.0258 0.23437,0.0371 1.12054,-1.68159 -4.84046,-4.64967 -0.74609,-4.83008 z m -6.07812,7.78516 0,0.002 c 3.01766,1.73061 4.1135,2.50594 5.3125,3.32812 -0.97615,1.04785 -1.88182,1.43679 -2.7461,1.42579 -0.29009,-0.85717 -0.67521,-1.60625 -1.63672,-1.68555 l -0.96484,2.14062 c -0.54665,-0.88104 -0.67915,-1.766 -2.03906,-2.64062 0.26858,-1.59202 0.95115,-2.46447 2.07422,-2.57031 z m -170.36524,6.15429 c 0.89461,1.89331 0.93221,3.33403 0.44922,4.50196 -1.32134,-0.0702 -2.54737,0.0456 -3.17578,1.30859 l 2.38476,2.47266 c -1.49272,0.26537 -2.76506,-0.0356 -4.68945,1.33789 -2.01691,-1.22693 -2.83357,-2.62626 -2.36914,-4.20899 3.98474,-3.16158 5.63436,-4.2288 7.40039,-5.41211 z M 10.404297,177.63867 c 0.441982,0.0109 0.844666,0.0983 1.214844,0.24805 -0.05061,1.11372 0.05487,2.14468 1.123047,2.66601 l 2.066406,-2.02343 c 0.231647,1.24759 -0.0045,2.31741 1.138672,3.91211 0.138653,-0.38857 0.413326,-0.83132 0.876953,-1.33985 11.180424,3.22409 -2.016118,5.26833 -0.916016,1.46094 -1.007139,1.63737 -2.161446,2.30553 -3.472656,1.93164 -2.6893856,-3.33693 -3.599092,-4.71889 -4.607422,-6.19922 0.993375,-0.4787 1.8395295,-0.67432 2.576172,-0.65625 z m 23.189453,24.43555 c 1.338251,0.45515 2.239659,1.05438 2.833984,1.7539 l 0,1.6211 c -0.606985,0.70279 -0.964648,1.47858 -0.615234,2.4668 l 0.615234,0.002 0,6.29297 c -0.239263,-0.57683 -0.469526,-1.20403 -0.691406,-1.88672 -1.588694,0.17459 -2.72477,-0.27603 -3.367187,-1.4082 0.48719,-4.92793 0.856249,-6.80532 1.224609,-8.8418 z m -8.296875,4.36523 c 4.527427,2.06629 -2.981177,9.31197 0,0 z m 224.996095,30.41211 c 0.12071,-0.007 0.24,-0.004 0.35937,0.008 0.31832,0.0317 0.63081,0.13269 0.93946,0.30078 0.21331,0.4333 0.35663,0.74404 0.53906,1.12304 0.16438,-0.0357 0.32892,-0.0712 0.52344,-0.15039 0.78339,0.77454 1.00261,1.49752 0.62109,2.16602 -0.0718,0.0336 -0.0931,0.0402 -0.16211,0.0723 0.77232,1.70118 1.21541,2.81942 1.6543,3.92774 -1.73841,0.40368 -2.94631,0.17549 -3.83203,-0.4375 0.24608,-0.90217 0.36396,-1.76958 -0.13477,-2.46875 -0.57437,0.23403 -1.01787,0.39816 -1.46875,0.5664 -0.0216,-0.10226 -0.0251,-0.18762 -0.0391,-0.2832 l -1.36328,0.8457 c 0.0482,-1.29124 0.52746,-2.29777 -0.26953,-4.14843 0.90942,-0.95728 1.78785,-1.47175 2.63281,-1.52149 z m 6.78711,4.04688 c 0.40065,-0.0326 0.75542,0.0841 1.06445,0.35547 0.5922,2.46647 0.72881,3.43702 0.89258,4.48437 -1.04421,0.007 -1.70426,-0.27826 -2.13086,-0.74219 0.30942,-0.58275 0.51519,-1.16125 0.0762,-1.71093 l -1.61914,0.55859 c 0.1938,-0.73078 0.59737,-1.24341 0.38086,-2.40234 0.4894,-0.32706 0.93529,-0.51038 1.33594,-0.54297 z m -12.44922,4.61914 c 1.19942,0.32524 1.86569,0.8653 2.20703,1.5332 -0.54059,0.5696 -0.95912,1.16537 -0.63086,1.93555 l 2.0332,-0.12305 c -0.45508,0.77621 -1.0802,1.23492 -1.20117,2.63281 -1.33078,0.43816 -2.27672,0.26849 -2.8125,-0.55078 0.10734,-3.01685 0.25839,-4.17458 0.4043,-5.42773 z m 15.12891,2.09765 c 0.62761,-0.0143 1.23091,0.24374 1.74804,0.88477 6.35358,1.94023 5.78305,4.65009 3.29297,6.12695 -0.28773,1.13666 -0.91887,1.8618 -1.92578,2.13867 l -0.002,0 c -1.24782,-0.45026 -2.22789,-0.82128 -3.0918,-1.1582 -0.78213,-0.12702 -1.51054,-0.4077 -2.11523,-0.86328 -0.42299,-0.18032 -0.76618,-0.33637 -1.12696,-0.49805 -3.99205,0.90355 -0.0499,-6.55609 3.22071,-6.63086 z m -90.86719,9.09571 c 8.3537,2.01426 -5.74014,6.0631 0.27148,0.65039 l -0.27148,-0.65039 z m -126.093752,1.10547 c 0.341803,0.32137 0.560884,0.6293 0.695313,0.92773 0.950454,0.68229 1.35413,1.49229 1.162109,2.43945 -2.73308,2.57752 -3.880429,3.46722 -5.105469,4.44922 -0.77758,-1.33686 -0.895141,-2.39528 -0.613281,-3.28515 0.818392,-0.0265 1.573192,-0.15218 2.023438,-0.75977 -0.106429,-0.1604 -0.18428,-0.33665 -0.203126,-0.54687 0.04042,-0.0697 0.05499,-0.0879 0.09375,-0.1543 l -1.570312,-1.3711 c 1.004504,-0.26865 1.904396,-0.1798 3.091797,-1.07031 0.139534,-0.20476 0.293468,-0.43784 0.425781,-0.6289 z m 216.251952,1.82031 c 0.2839,-0.0235 0.49045,0.0672 0.61719,0.27539 -0.0676,0.99976 -0.13176,1.38069 -0.19336,1.79492 -0.39443,-0.12076 -0.60876,-0.30601 -0.71484,-0.53125 0.18544,-0.18317 0.3311,-0.37768 0.23046,-0.63672 l -0.67578,0.0195 c 0.1593,-0.25263 0.37068,-0.39691 0.42578,-0.85937 0.11155,-0.0328 0.21592,-0.0547 0.31055,-0.0625 z m 18.75195,13.08789 c 4.47259,0.55974 6.17127,0.94088 8.01563,1.32422 -0.64292,1.74066 -1.53167,2.65913 -2.57031,3.07812 -0.77538,-0.87955 -1.60786,-1.58324 -2.79688,-1.19726 l -0.0859,3.04101 c -1.094,-0.77983 -1.69291,-1.77121 -3.75585,-2.13672 -0.47501,-2.03734 -0.0962,-3.4213 1.19335,-4.10937 z m 79.0293,24.44531 c 0.19256,-0.01 0.35878,0.0248 0.50781,0.0918 -0.0154,0.18497 -0.0109,0.36017 0.043,0.51172 0.38276,-0.15097 0.79038,-0.28951 1.25196,-0.39844 9.80241,0.91022 4.74912,5.6541 6.5957,9.52539 0.86759,0.0127 1.68271,0.0318 2.42383,0.0566 -0.14178,0.76876 -0.35327,1.3984 -0.61719,1.92188 0.49007,0.33116 1.07026,0.64715 1.78516,0.9414 -1.65321,1.99209 -3.80378,2.45082 -5.94532,1.97461 l 0.1543,1.06055 c -1.23534,-0.59346 -2.01129,-1.48614 -4.14844,-1.49414 -0.29945,-0.70732 -0.46904,-1.34586 -0.51367,-1.91992 -3.9595,-3.31418 -6.17688,-8.9761 -1.71094,-11.34571 -0.19971,-0.29741 -0.33887,-0.52172 -0.48437,-0.7539 0.24815,-0.10822 0.46564,-0.16192 0.6582,-0.17188 z m 14.33789,5.47852 c 0.24418,0.0105 0.48779,0.0726 0.73047,0.1875 1.62838,2.8841 2.14892,4.05252 2.73047,5.30859 -1.30858,0.38296 -2.24129,0.26137 -2.94336,-0.16797 0.17938,-0.84267 0.23086,-1.64327 -0.51758,-2.17578 l -1.83203,1.28125 c -0.019,-0.987 0.30298,-1.77509 -0.38477,-3.15234 0.74557,-0.87939 1.48427,-1.31263 2.2168,-1.28125 z m -342.519529,2.39258 c 0.386661,1.21459 0.445994,2.19467 0.271484,3.00976 0.0071,-0.0141 0.01454,-0.022 0.02148,-0.0371 0.413,0.0114 0.65781,0.15277 0.72461,0.4336 -0.33116,0.82631 -0.488467,1.13181 -0.654297,1.46484 -0.30031,-0.21005 -0.430986,-0.42706 -0.458984,-0.64649 0.20688,-0.10403 0.38324,-0.22617 0.36914,-0.47265 l -0.21289,-0.0625 c -0.05884,0.13816 -0.123348,0.27092 -0.197266,0.39844 -1.17556,-0.22152 -2.287203,-0.26527 -3.001953,0.79101 l 1.839843,2.50196 c -1.259262,0.0538 -2.302213,-0.28473 -3.929687,0.43554 l -0.662109,0 c -1.472574,-1.27554 -1.964549,-2.56117 -1.388672,-3.85547 3.95017,-2.3545 5.554757,-3.11267 7.279297,-3.96093 z m 17.09375,7.01367 c 0.294365,0.26959 0.537974,0.53707 0.757812,0.80273 l -5.023437,0 -0.273438,-0.42383 c 1.41586,0.027 2.527103,0.53137 4.539063,-0.3789 z m -9.69336,0.78906 c 0.05019,0.002 0.09864,0.0101 0.148438,0.0137 l -0.525391,0 c 0.124685,-9.7e-4 0.254333,-0.0196 0.376953,-0.0137 z m 214.644529,19.31641 c -1.95611,4.17938 -0.98166,0.0944 0,0 z M 86.623047,344.76172 c 3.092002,6.07102 -3.790522,2.23929 0,0 z m 7.369141,4.78516 c 4.062207,2.12722 2.806871,5.67438 1.02539,7.19726 0.507587,-0.29704 1.008233,-0.44326 1.501953,-0.4082 0.308083,0.0219 0.613523,0.10992 0.916016,0.26367 1.95478,3.701 2.569683,5.19543 3.259763,6.80273 -1.66648,0.4374 -2.837322,0.2508 -3.708982,-0.3164 0.2565,-1.0582 0.348455,-2.06643 -0.578125,-2.76563 l -2.361328,1.55469 c 0.01102,-1.2475 0.446933,-2.23199 -0.373047,-3.99609 0.239932,-0.26741 0.477892,-0.49844 0.714844,-0.69727 -1.449809,0.78903 -2.884526,0.0834 -1.966797,-3.87305 -4.164628,0.6392 0.848083,-3.44314 1.570313,-3.76171 z m 30.728512,8.78124 c 0.11039,-0.005 0.22097,-0.003 0.33008,0.008 0.29096,0.0299 0.57765,0.12279 0.85938,0.27734 1.73975,3.5615 2.27758,4.99511 2.88281,6.53711 -1.59058,0.3642 -2.69383,0.15079 -3.50195,-0.41211 0.27438,-0.9939 0.39132,-1.94526 -0.46485,-2.63476 l -2.27929,1.40039 c 0.0473,-1.1805 0.48714,-2.09867 -0.23633,-3.79297 0.83417,-0.87275 1.63742,-1.33981 2.41015,-1.38282 z m -65.472653,15.28321 c 7.306724,8.5934 -8.404902,9.8507 0,0 z m 55.617183,1.13672 c 1.0479,0.2418 1.60116,0.72957 1.62696,1.48047 l -0.002,0 c -1.2709,1.9375 -1.82951,2.63589 -2.42382,3.40039 -0.65796,-0.6906 -0.88145,-1.30862 -0.83985,-1.88282 0.58142,-0.1589 1.09465,-0.38343 1.18555,-1.01953 l -1.38477,-0.72851 c 0.60753,-0.3285 1.20238,-0.3805 1.83789,-1.25 z"
           transform="translate(0,652.36216)"
           id="rect24751" />
      </g>
    </pattern>
  </defs>
  <metadata
     id="metadata7">
    <rdf:RDF>
      <cc:Work
         rdf:about="">
        <dc:format>image/svg+xml</dc:format>
        <dc:type
           rdf:resource="http://purl.org/dc/dcmitype/StillImage" />
        <dc:title></dc:title>
      </cc:Work>
    </rdf:RDF>
  </metadata>
  <g
     transform="matrix(0.28506271,0,0,0.28506271,6.66e-6,0.170137)"
     id="layer16">
    <path
       id="rect19015"
       d="m 0,0 0,665.92317 3508,0 L 3508,0 Z"
       style="color:#000000;clip-rule:nonzero;display:inline;overflow:visible;visibility:visible;opacity:1;isolation:auto;mix-blend-mode:normal;color-interpolation:sRGB;color-interpolation-filters:linearRGB;solid-color:#000000;solid-opacity:1;fill:url(#pattern25625);fill-opacity:1;fill-rule:nonzero;stroke:none;stroke-width:4;stroke-linecap:butt;stroke-linejoin:miter;stroke-miterlimit:4;stroke-dasharray:none;stroke-dashoffset:0;stroke-opacity:1;marker:none;marker-start:none;marker-mid:none;marker-end:none;color-rendering:auto;image-rendering:auto;shape-rendering:auto;text-rendering:auto;enable-background:accumulate" />
  </g>
  <path
     id="path4165"
     d="M 134.67383 26.490234 C 134.17783 26.48822 133.66829 26.493672 133.15234 26.515625 C 107.48651 26.561805 81.818482 26.533676 56.148438 26.541016 L 38.042969 26.541016 L 38.042969 30.740234 C 33.273316 31.861281 18.301795 36.627945 18.277344 52.40625 C 18.239452 76.856245 36.195312 77.275391 36.195312 77.275391 C 36.195312 77.275391 31.494081 77.522915 30.927734 82.751953 C 30.125333 90.160518 33.666016 89.925781 33.666016 89.925781 C 33.666016 89.925781 22.072266 93.502189 22.072266 108.67773 C 22.072266 123.85327 33.027344 127.22266 33.027344 127.22266 C 33.027344 127.22266 28.50304 128.31137 27.550781 131.86523 C 26.59853 135.41909 27.759766 138.18945 27.759766 138.18945 C 27.759766 138.18945 18.696307 140.70986 19.960938 149.35156 C 21.225566 157.99318 29.023438 155.46875 29.023438 155.46875 C 29.023438 155.46875 27.975153 162.21372 31.136719 163.26758 C 31.699114 163.45506 34.441047 163.57407 38.042969 163.66602 L 38.042969 165.16211 L 68.080078 165.16211 L 97.324219 165.16211 L 97.324219 161.32422 C 102.78812 162.13607 107.98125 161.38365 112.68359 159.50391 C 119.35663 164.61937 126.90767 166.18493 132.70703 164.54492 C 138.67132 162.85822 143.45879 160.12331 146.64453 155.04297 C 147.59527 157.46337 150.19604 159.24659 155.20898 159.0957 C 160.38449 158.93992 160.25738 158.19623 164.0625 156.46094 C 166.81297 154.87297 169.13867 155.88537 169.13867 159.35742 C 168.60523 163.79574 161.02859 165.16211 156.43555 165.16211 L 160.09961 165.16211 C 164.79384 165.16211 172.53906 163.79176 172.53906 158.84766 C 172.53906 152.33204 166.60075 151.2899 165.32812 152.5625 C 169.39999 149.38162 170.67251 137.44155 165.11133 132.86133 C 160.28426 128.88573 155.34301 130.02278 151.84961 130.80859 C 158.4042 126.95239 162.06605 119.31244 161.98242 115.58008 C 161.79333 107.13659 156.42374 102.17139 153.36719 99.966797 C 156.43102 96.955426 159.15457 93.61685 161.8418 90.673828 L 161.87891 90.634766 L 161.91211 90.591797 C 169.7727 80.60405 174.06484 66.785734 170.01172 54.1875 C 165.6623 38.744006 150.97919 26.555346 134.67383 26.490234 z M 134.66016 29.447266 C 149.4956 29.506136 163.20274 40.856187 167.17578 55.023438 L 167.18359 55.050781 L 167.19141 55.078125 C 170.86737 66.482087 166.95526 79.387917 159.59961 88.744141 C 153.28201 95.671962 147.2853 103.68254 138.42969 105.55078 C 133.67162 105.54614 128.94567 105.18579 124.24414 104.58008 C 118.59844 100.99974 111.74148 99.231672 105.33789 99.236328 C 103.50677 99.237659 101.71517 99.386901 99.998047 99.675781 C 93.476224 98.015548 86.968439 96.206109 80.453125 94.494141 L 78.599609 94.007812 L 78.599609 153.55664 L 87.275391 153.55664 L 94.365234 161.80664 L 94.365234 162.20508 L 83.691406 162.20508 L 83.691406 158.99023 L 73.402344 158.1543 L 73.402344 87.160156 C 73.402344 87.160156 131.96833 104.4489 140.31445 99.679688 C 148.66057 94.910476 162.6695 79.694517 163.26562 67.771484 C 163.86178 55.848451 159.30211 46.25011 150.45898 40.056641 C 145.03796 36.259885 140.21147 34.697266 133.4668 34.697266 L 62.826172 34.697266 L 62.826172 158.1543 L 52.09375 158.99023 L 52.09375 162.20508 L 41 162.20508 L 41 161.82812 L 48.496094 153.55664 L 57.626953 153.55664 L 57.626953 152.07812 C 57.626953 152.07812 57.626994 83.172988 57.626953 39.613281 L 57.626953 38.134766 L 48.496094 38.134766 L 41.640625 30.570312 C 41.653919 30.53041 41.66029 30.498836 41.673828 30.458984 L 41.539062 30.457031 L 41 29.863281 L 41 29.498047 L 56.148438 29.498047 C 81.81581 29.490747 107.48475 29.518846 133.15625 29.472656 L 133.1875 29.472656 L 133.2207 29.470703 C 133.69205 29.449463 134.17241 29.445256 134.66016 29.447266 z M 39.847656 32.996094 L 46.654297 40.505859 C 43.827986 39.507691 40.230281 39.23969 35.695312 40.210938 C 22.426195 43.052759 21.05514 64.674067 39.867188 66.291016 C 52.930911 67.413878 52.183915 51.157269 41.490234 52.279297 C 46.931005 52.065165 50.686886 64.081867 39.271484 63.757812 C 27.403894 63.420918 26.469598 48.94663 37.185547 46.767578 C 44.262087 45.59214 46.371341 46.825566 50.896484 51.388672 C 52.873009 53.365196 53.778236 57.248786 54.669922 59.880859 C 54.669925 68.127727 54.669922 70.45988 54.669922 78.699219 C 49.726921 80.559371 43.099913 80.057672 38.375 77.171875 C 43.837141 77.627051 49.183997 76.571883 51.935547 72.097656 C 23.883455 88.928921 9.5973128 40.486521 39.847656 32.996094 z M 41.490234 52.279297 C 41.274706 52.287779 41.055915 52.309002 40.835938 52.357422 C 41.060368 52.320204 41.273918 52.301994 41.490234 52.279297 z M 48.054688 41.091797 L 54.669922 41.091797 C 54.669925 43.903375 54.66992 45.27131 54.669922 48.244141 C 53.529228 45.508374 51.457176 42.734906 48.054688 41.091797 z M 73.402344 46.017578 L 126.00781 46.017578 C 141.86878 46.062768 152.55852 55.687326 151.3457 68.082031 C 150.33603 76.916982 139.99079 88.181751 134.40039 89.679688 C 129.75786 90.923657 73.402344 77.615234 73.402344 77.615234 L 73.402344 46.017578 z M 121.56055 50.207031 C 121.24393 50.253965 121.01437 50.430398 120.93359 50.820312 C 120.89061 50.948546 120.86415 51.076729 120.82617 51.205078 C 107.24493 51.216844 93.661612 51.21236 80.078125 51.214844 L 78.642578 51.214844 L 78.601562 52.650391 C 78.406346 59.274738 78.835774 65.802969 78.537109 72.212891 L 78.478516 73.455078 L 79.691406 73.724609 C 93.196575 76.726993 106.88468 80.01466 120.63672 82.589844 L 120.64453 82.589844 L 120.65039 82.591797 C 124.42438 83.262913 130.12413 83.784738 134.96484 82.230469 L 135.21484 82.150391 L 135.42188 81.988281 C 138.15849 79.849087 140.90305 77.575753 142.95703 74.779297 C 145.01101 71.982837 146.34123 68.600646 146.10742 64.566406 L 146.10352 64.496094 L 146.09375 64.425781 C 145.40782 60.00401 142.61479 56.665365 139.12695 54.507812 C 135.63914 52.350257 131.43717 51.280331 127.52539 51.203125 L 126.01758 51.173828 L 126.01758 51.203125 C 125.73051 51.203483 125.44332 51.202787 125.15625 51.203125 C 125.1721 51.154084 125.18254 51.103484 125.19922 51.054688 C 124.25537 51.094707 122.51039 50.06623 121.56055 50.207031 z M 124.70703 54.160156 C 125.62637 54.159109 126.54549 54.161419 127.46484 54.160156 L 127.4668 54.160156 C 130.86921 54.227656 134.62511 55.201551 137.57031 57.023438 C 140.49754 58.834216 142.59962 61.393453 143.15234 64.818359 C 143.23447 66.398372 143.03781 67.809731 142.62109 69.117188 C 135.6599 68.596909 128.73173 64.44239 125.58984 58.175781 C 125.00385 56.926711 124.71306 55.545899 124.70703 54.160156 z M 113.92578 54.164062 C 117.34671 56.098514 121.38315 58.35687 121.64062 62.630859 C 121.14361 67.702598 116.25416 70.680715 112.45312 73.341797 C 110.59179 74.530936 108.67937 75.633982 106.76758 76.742188 C 105.07657 76.3776 103.38485 76.020636 101.69531 75.646484 C 110.05619 70.736444 112.70851 64.187288 108.80859 59.283203 C 104.82181 54.269862 91.758846 53.737223 89.646484 63.609375 C 89.304168 65.20911 90.371295 67.918752 91.732422 68.826172 C 94.657438 70.776185 97.956664 69.906941 99.185547 66.738281 C 97.523375 69.755434 91.963547 66.601571 92.908203 63.767578 C 94.793584 58.11134 103.5288 57.784662 106.03711 61.449219 C 108.92447 65.66759 104.096 71.579206 96.486328 74.476562 C 91.48318 73.349721 86.478989 72.211314 81.5 71.099609 C 81.690459 65.385882 81.467744 59.740295 81.558594 54.171875 C 92.346639 54.170394 103.13643 54.168596 113.92578 54.164062 z M 125.35352 65.220703 C 125.93339 65.81224 126.53972 66.368752 127.16797 66.875 C 129.37773 68.889595 132.23408 70.360991 134.50977 72.039062 C 134.05396 73.547163 132.87823 77.370518 132.51758 79.785156 C 129.99077 80.313051 127.12439 80.327982 124.57422 80.113281 C 124.4919 79.990766 124.3912 79.859396 124.26172 79.714844 C 122.85039 77.451784 120.86298 75.673319 118.90039 73.898438 C 121.45858 71.620831 124.30912 68.618613 125.35352 65.220703 z M 141.59961 71.431641 C 141.29284 71.975697 140.95426 72.509227 140.57227 73.029297 C 139.45006 74.557175 137.99164 75.975748 136.39648 77.351562 C 136.83777 73.693843 139.29682 71.838126 141.59961 71.431641 z M 115.55469 76.476562 C 116.13975 76.43762 116.70808 76.619653 117.24414 77.222656 C 118.19106 77.808252 119.06641 78.543965 119.77344 79.410156 C 117.22663 78.924246 114.68045 78.417771 112.13477 77.890625 C 112.28258 77.808834 112.42994 77.718565 112.57617 77.615234 C 113.5601 77.224443 114.57958 76.541467 115.55469 76.476562 z M 36.587891 78.357422 C 41.113723 82.857279 49.030154 84.567359 54.669922 80.580078 C 54.669922 85.112326 54.669923 86.692741 54.669922 90.992188 C 53.186321 89.511326 50.71975 88.460854 48.431641 88.431641 C 48.77435 87.707754 49.061419 86.896072 49.263672 85.960938 C 43.678835 96.199798 25.40243 85.651436 36.587891 78.357422 z M 46.414062 91.107422 C 50.343311 91.206721 53.634243 94.211347 54.669922 97.158203 C 54.669921 101.03545 54.669923 103.55757 54.669922 107.02148 C 49.809916 116.06424 38.62513 117.21848 35.248047 112.79102 C 31.775046 108.23779 39.805604 96.413669 44.787109 99.974609 C 49.7686 103.53555 42.733024 107.39235 40.166016 107.72461 C 44.526072 109.14384 54.656722 103.07847 47.021484 97.589844 C 39.38623 92.101221 27.824192 105.2312 31.373047 114.13281 C 34.712761 122.50988 48.834923 120.837 54.669922 113.73828 C 54.669919 121.38064 54.669924 134.61092 54.669922 137.96289 C 52.923149 143.19075 49.981357 145.22087 46.726562 145.67383 C 42.940698 146.20068 40.313425 145.74055 37.09375 144.35547 C 40.929549 147.8414 43.429306 148.75159 46.982422 148.14453 C 49.906964 147.64486 52.919003 146.60612 54.669922 143.88672 C 54.669922 144.44759 54.669922 150.49244 54.669922 150.59961 L 47.185547 150.59961 L 38.042969 160.6875 L 38.042969 161.55078 C 31.396335 161.71442 29.963862 158.90166 32.857422 153.18555 C 22.635341 155.74105 16.545559 143.70076 28.462891 139.98828 C 29.284421 140.56332 30.417824 141.46282 32.414062 141.41016 C 25.711692 138.11298 29.812285 128.49962 35.701172 128.21289 C 35.959114 128.31334 36.226948 128.40772 36.5 128.49805 C 35.047261 129.01789 34.393515 132.04033 34.205078 133.35938 C 33.105343 141.05755 45.599219 143.727 47.46875 136.63672 C 48.026647 134.52085 45.010613 132.03639 43.296875 132.46484 C 49.65735 137.39969 40.041683 139.80036 36.886719 135.59375 C 35.028327 133.11589 36.634278 129.34172 39.179688 129.14062 C 39.365112 129.16975 39.548447 129.20177 39.736328 129.22461 L 41.060547 129.63281 C 40.769829 129.45838 40.485612 129.34915 40.205078 129.26758 C 44.321636 129.64439 48.864182 128.42089 51.349609 123.51758 C 35.014244 136.61857 11.761197 108.54523 34.800781 91.398438 C 38.390157 93.157514 43.248732 93.783046 46.414062 91.107422 z M 81.556641 97.851562 C 85.798151 98.979171 90.058286 100.14537 94.333984 101.2793 C 86.2066 104.69256 81.753042 112.35679 87.408203 124.06641 C 83.085165 111.9949 96.257059 103.3057 109.1875 104.93359 C 110.50983 105.22255 111.83415 105.5005 113.16211 105.76367 C 117.88891 107.19174 122.32891 110.14865 125.56445 115.00195 C 139.64831 136.12779 115.04588 161.49087 93.666016 156.45508 L 88.634766 150.59961 L 81.556641 150.59961 L 81.556641 142.2207 C 90.675584 153.94175 117.26071 146.29904 120.71289 132.49023 C 123.38282 121.81049 112.85223 111.47471 103.77344 111.46875 C 99.940191 111.46675 96.367371 113.30821 94.150391 117.74219 C 90.199136 125.64464 102.62364 127.59947 106.79883 124.91406 C 102.7596 126.38736 94.861548 123.90784 97.736328 118.1582 C 102.19207 109.2467 113.41015 117.89648 115.6543 122.38477 C 124.87911 140.83437 88.636732 153.0892 81.556641 134.34375 L 81.556641 97.851562 z M 151.25586 101.91797 C 164.20376 114.0445 153.63381 127.97234 143.19727 130.29102 C 141.19174 129.09048 138.73314 128.16593 135.76953 127.60938 C 135.82001 126.89261 135.85624 126.17775 135.85547 125.4668 C 140.10384 126.57861 145.54332 125.62978 148.44922 123.13867 C 155.61428 116.99638 151.41722 108.20799 147.84766 104.57812 C 149.0379 103.76525 150.16969 102.86894 151.25586 101.91797 z M 144.46289 106.56836 C 147.58761 109.75557 150.87225 115.0823 146.11133 119.72461 C 143.20584 122.55772 138.37561 123.62302 135.64844 122.05859 C 135.42099 120.23597 134.99885 118.45792 134.38281 116.74805 C 135.20337 115.99008 136.4842 115.8464 137.12305 116.01758 C 138.33732 116.34294 139.05747 117.22864 139.3457 118.41211 L 139.48242 118.97852 L 139.73633 118.45312 C 140.06989 117.75826 140.00347 116.85085 139.67773 115.96875 C 139.35202 115.08664 138.8167 114.13925 137.97461 113.61719 C 136.74304 112.85367 134.7924 112.99255 133.11328 113.86523 C 132.09324 111.92783 130.78118 110.11126 129.13867 108.46875 C 128.99332 108.3234 128.83804 108.18875 128.68945 108.04688 C 131.97341 108.34226 135.27677 108.51644 138.60742 108.51367 L 138.75586 108.51367 L 138.90039 108.48438 C 140.89313 108.07811 142.73644 107.41563 144.46289 106.56836 z M 134.82617 133.41211 C 140.27929 134.9401 143.12436 137.8013 144.14258 141.13867 C 145.33608 145.05039 144.01954 149.67697 141.28906 153.59961 C 138.55859 157.52225 134.7141 158.97769 130.36719 160.05859 C 126.61318 160.99207 121.94312 159.79445 118.35156 156.53516 C 122.98459 153.53515 126.92812 149.43331 129.88867 144.77539 C 130.82266 144.98973 131.5771 145.27766 132.14062 145.63281 C 133.04217 146.2011 133.52255 146.90735 133.75195 147.68555 C 134.21086 149.24191 133.61393 151.12697 133.00391 152.52344 L 132.73242 153.14648 L 133.33594 152.83398 C 138.61853 150.10625 137.37802 142.19947 132.44922 140.10547 C 133.46045 137.9269 134.25428 135.6801 134.82617 133.41211 z M 157.44141 133.82617 C 158.82129 133.88697 159.97364 134.36062 161.88281 135.73047 C 168.80804 140.6994 165.10162 155.27672 154.36133 155.0918 C 146.55859 154.95745 152.11104 142.09645 158.89844 145.18164 C 155.95294 142.34879 152.71875 142.8124 150.25 144.72656 C 150.48588 142.15797 150.20522 139.63735 149.30859 137.33398 C 148.94373 136.39666 148.47141 135.49868 147.89648 134.64844 C 153.19888 134.43322 155.54705 133.74271 157.44141 133.82617 z "
     style="color:#000000;font-style:normal;font-variant:normal;font-weight:normal;font-stretch:normal;font-size:medium;line-height:normal;font-family:sans-serif;text-indent:0;text-align:start;text-decoration:none;text-decoration-line:none;text-decoration-style:solid;text-decoration-color:#000000;letter-spacing:normal;word-spacing:normal;text-transform:none;direction:ltr;block-progression:tb;writing-mode:lr-tb;baseline-shift:baseline;text-anchor:start;white-space:normal;clip-rule:nonzero;display:inline;overflow:visible;visibility:visible;opacity:1;isolation:auto;mix-blend-mode:normal;color-interpolation:sRGB;color-interpolation-filters:linearRGB;solid-color:#000000;solid-opacity:1;fill:#ffffff;fill-opacity:1;fill-rule:nonzero;stroke:none;stroke-width:7.08661413;stroke-linecap:butt;stroke-linejoin:miter;stroke-miterlimit:4;stroke-dasharray:none;stroke-dashoffset:0;stroke-opacity:1;color-rendering:auto;image-rendering:auto;shape-rendering:auto;text-rendering:auto;enable-background:accumulate" />
  <text
     id="text18071"
     y="113.39452"
     x="176.54776"
     style="font-style:normal;font-variant:normal;font-weight:normal;font-stretch:normal;font-size:66.4072113px;line-height:125%;font-family:'Roboto Condensed';-inkscape-font-specification:'Roboto Condensed, Normal';text-align:start;letter-spacing:0px;word-spacing:0px;writing-mode:lr-tb;text-anchor:start;fill:#000000;fill-opacity:1;stroke:none;stroke-width:1px;stroke-linecap:butt;stroke-linejoin:miter;stroke-opacity:1"
     xml:space="preserve"><tspan
       style="font-style:normal;font-variant:normal;font-weight:normal;font-stretch:normal;font-size:116.47823334px;font-family:'Roboto Slab';-inkscape-font-specification:'Roboto Slab';text-align:start;text-anchor:start;fill:#ffffff"
       y="113.39452"
       x="176.54776"
       id="tspan18073">eter Sharp</tspan></text>
  <text
     id="text18801"
     y="163.11961"
     x="194.36769"
     style="font-style:normal;font-variant:normal;font-weight:normal;font-stretch:normal;font-size:26.42931747px;line-height:125%;font-family:'Roboto Condensed';-inkscape-font-specification:'Roboto Condensed, Normal';text-align:start;letter-spacing:0px;word-spacing:0px;writing-mode:lr-tb;text-anchor:start;fill:#ffffff;fill-opacity:1;stroke:none;stroke-width:1px;stroke-linecap:butt;stroke-linejoin:miter;stroke-opacity:1"
     xml:space="preserve"><tspan
       style="font-style:normal;font-variant:normal;font-weight:bold;font-stretch:normal;font-family:'Roboto Slab';-inkscape-font-specification:'Roboto Slab Bold';fill:#ffffff"
       y="163.11961"
       x="194.36769"
       id="tspan18803">Illustrator, 3D Generalist, Web-designer</tspan></text>
</svg>
