<?xml version="1.0" encoding="UTF-8" standalone="no"?>
<svg
   xmlns:dc="http://purl.org/dc/elements/1.1/"
   xmlns:cc="http://creativecommons.org/ns#"
   xmlns:rdf="http://www.w3.org/1999/02/22-rdf-syntax-ns#"
   xmlns:svg="http://www.w3.org/2000/svg"
   xmlns="http://www.w3.org/2000/svg"
   version="1.1"
   id="svg31347"
   viewBox="0 0 300 72.194428"
   height="72.194427"
   width="300">
  <defs
     id="defs31349" />
  <metadata
     id="metadata31352">
    <rdf:RDF>
      <cc:Work
         rdf:about="">
        <dc:format>image/svg+xml</dc:format>
        <dc:type
           rdf:resource="http://purl.org/dc/dcmitype/StillImage" />
        <dc:title></dc:title>
      </cc:Work>
    </rdf:RDF>
  </metadata>
  <g
     transform="translate(-81.294942,-470.37088)"
     id="layer1">
    <g
       transform="matrix(1.470497,0,0,1.470497,-38.249025,-255.27535)"
       id="g27321">
      <text
         xml:space="preserve"
         style="font-style:normal;font-variant:normal;font-weight:normal;font-stretch:normal;font-size:19.55294609px;line-height:125%;font-family:'Roboto Condensed';-inkscape-font-specification:'Roboto Condensed, Normal';text-align:start;letter-spacing:0px;word-spacing:0px;writing-mode:lr-tb;text-anchor:start;fill:#ffffff;fill-opacity:1;stroke:none;stroke-width:1px;stroke-linecap:butt;stroke-linejoin:miter;stroke-opacity:1"
         x="117.74686"
         y="528.42059"
         id="text18071"><tspan
           id="tspan18073"
           x="117.74686"
           y="528.42059"
           style="font-style:normal;font-variant:normal;font-weight:normal;font-stretch:normal;font-size:34.29586411px;font-family:'Roboto Slab';-inkscape-font-specification:'Roboto Slab';text-align:start;text-anchor:start;fill:#ffffff;fill-opacity:1">eter Sharp</tspan></text>
      <text
         xml:space="preserve"
         style="font-style:normal;font-variant:normal;font-weight:normal;font-stretch:normal;font-size:11.92601585px;line-height:125%;font-family:'Roboto Condensed';-inkscape-font-specification:'Roboto Condensed, Normal';text-align:start;letter-spacing:0px;word-spacing:0px;writing-mode:lr-tb;text-anchor:start;fill:#b19c9c;fill-opacity:1;stroke:none;stroke-width:1px;stroke-linecap:butt;stroke-linejoin:miter;stroke-opacity:1;"
         x="86.040016"
         y="540.96497"
         id="text18801"><tspan
           id="tspan18803"
           x="86.040016"
           y="540.96497"
           style="font-style:normal;font-variant:normal;font-weight:bold;font-stretch:normal;font-size:7.5px;font-family:'Roboto Slab';-inkscape-font-specification:'Roboto Slab Bold';letter-spacing:0.97000003px;fill:#b19c9c;fill-opacity:1;">Web Designer  illustrator  3D generalist</tspan></text>
      <g
         id="g10197"
         transform="matrix(0.85549469,0,0,0.85549469,24.593434,131.82125)">
        <path
           id="path10194"
           d="m 78.979375,439.14896 c -3.422093,2.21575 -8.055315,0.98151 -10.203947,-2.39902 -2.435192,-3.83138 -1.045866,-8.98776 2.741818,-11.35929 4.240412,-2.65499 9.920489,-1.11039 12.514632,3.08461 2.285024,3.69512 1.738794,8.56572 -1.146554,11.77436 z"
           style="fill:#ff7f2a;fill-opacity:1;fill-rule:evenodd;stroke:none;stroke-width:3;stroke-linecap:butt;stroke-linejoin:miter;stroke-miterlimit:4;stroke-dasharray:none;stroke-opacity:1" />
        <path
           d="m 75.654579,433.01886 c 0.362538,0.36254 -0.30983,0.66756 -0.602562,0.60256 -0.793284,-0.17613 -0.920809,-1.19223 -0.602561,-1.80768 0.56927,-1.10091 2.047542,-1.22988 3.012809,-0.60257 1.416569,0.92061 1.548097,2.91446 0.602561,4.21794 -1.260251,1.73733 -3.785488,1.87022 -5.423057,0.60256 -2.060713,-1.59523 -2.19437,-4.65849 -0.60256,-6.62818 1.927895,-2.38557 5.532585,-2.51969 7.833304,-0.60256 2.711318,2.25926 2.845735,6.40737 0.60256,9.03843 -2.589835,3.03765 -7.282627,3.17227 -10.243552,0.60256 -3.364392,-2.91988 -3.499155,-8.1582 -0.602559,-11.44868 3.249543,-3.69142 9.03401,-3.82629 12.653799,-0.60256 4.018653,3.57895 4.153601,9.91 0.602559,13.85892"
           id="path10150"
           style="fill:none;fill-rule:evenodd;stroke:#dd4d00;stroke-width:0.46756572;stroke-linecap:butt;stroke-linejoin:miter;stroke-miterlimit:4;stroke-dasharray:none;stroke-opacity:1" />
        <path
           id="path10191"
           d="m 73.717478,443.92366 c -1.77368,0.31523 -3.387065,-1.06168 -3.645162,-2.78486 -0.320405,-2.13919 1.3474,-4.06115 3.435652,-4.33389 2.505177,-0.32719 4.738006,1.63249 5.024425,4.085 0.09836,0.84223 -0.02637,1.70456 -0.350638,2.48753 z"
           style="fill:#ff7f2a;fill-opacity:1;fill-rule:evenodd;stroke:none;stroke-width:2.84746075;stroke-linecap:butt;stroke-linejoin:miter;stroke-miterlimit:4;stroke-dasharray:none;stroke-opacity:1" />
        <path
           transform="matrix(0.08787671,0,0,0.0878585,127.80136,437.96444)"
           d="m -616.41968,34.938286 c 2.29205,3.975257 -4.22775,5.050882 -6.60714,3.809529 -6.44798,-3.36399 -5.19147,-12.442826 -1.01192,-17.023805 7.47625,-8.194299 20.5533,-5.877372 27.44048,1.785689 10.1072,11.245851 6.61551,28.785331 -4.5833,37.857139 -14.92626,12.091294 -37.06203,7.37783 -48.27381,-7.380908 -14.10888,-18.572364 -8.15304,-45.3603734 10.17852,-58.6904728 22.20197,-16.1445362 53.67099,-8.9357882 69.10714,12.9761265 18.19096,25.8224333 9.72328,61.9892763 -15.77374,79.5238073 -8.99141,6.183479 -19.60215,9.865278 -30.47619,10.696037"
           id="path10152"
           style="fill:none;fill-rule:evenodd;stroke:#dd4d00;stroke-width:5.32125282;stroke-linecap:butt;stroke-linejoin:miter;stroke-miterlimit:4;stroke-dasharray:none;stroke-opacity:1" />
        <path
           id="path10185"
           d="m 79.295485,461.37609 c -4.294448,1.95331 -9.390332,-0.24259 -11.276225,-4.47888 -2.131955,-4.78902 0.324049,-10.44554 5.053481,-12.51399 5.283721,-2.31088 11.501793,0.40535 13.752633,5.62772 2.082829,4.83256 0.36861,10.56948 -3.846539,13.65185 z"
           style="fill:#ff7f2a;fill-opacity:1;fill-rule:evenodd;stroke:none;stroke-width:3.6211741;stroke-linecap:butt;stroke-linejoin:miter;stroke-miterlimit:4;stroke-dasharray:none;stroke-opacity:1" />
        <path
           transform="matrix(0.37343156,0,0,0.37341857,217.50962,131.98408)"
           d="m -377.56216,861.77252 c 1.25579,0.91717 -0.61676,2.14529 -1.5244,2.08721 -2.45963,-0.15737 -3.31635,-3.14293 -2.65003,-5.136 1.19189,-3.56513 5.56185,-4.64202 8.74761,-3.21285 4.67522,2.09738 6.00057,8.01127 3.77567,12.35922 -2.96545,5.79513 -10.47121,7.37274 -15.97083,4.33849 -6.92071,-3.8183 -8.75187,-12.93609 -4.9013,-19.58244 4.66355,-8.04962 15.40373,-10.13502 23.19404,-5.46412 9.18061,5.5045 11.5207,17.8731 6.02694,26.80565 -6.34276,10.31299 -20.34361,12.90806 -30.41726,6.58976 -11.44631,-7.17926 -14.29659,-22.81494 -7.15257,-34.02886 8.0145,-12.58033 25.28685,-15.68599 37.64047,-7.7154 13.71485,8.84886 17.07601,27.75922 8.27821,41.25208 -2.05946,3.15852 -4.69671,5.93158 -7.73993,8.15704"
           id="path10154"
           style="fill:none;fill-rule:evenodd;stroke:#dd4d00;stroke-width:1.25210059;stroke-linecap:butt;stroke-linejoin:miter;stroke-miterlimit:4;stroke-dasharray:none;stroke-opacity:1" />
        <path
           id="path10188"
           d="m 71.900524,458.1117 c 1.646688,0.42811 2.508743,2.23482 2.057665,3.82366 -0.549124,1.93419 -2.690609,2.93792 -4.569638,2.37254 -2.222694,-0.6688 -3.36895,-3.14558 -2.688352,-5.3138 0.676971,-2.15665 2.898553,-3.47854 5.116083,-3.21105 z"
           style="fill:#ff7f2a;fill-opacity:1;fill-rule:evenodd;stroke:none;stroke-width:6.10882998;stroke-linecap:butt;stroke-linejoin:miter;stroke-miterlimit:4;stroke-dasharray:none;stroke-opacity:1" />
        <path
           style="fill:none;fill-rule:evenodd;stroke:#dd4d00;stroke-width:0.46761224;stroke-linecap:butt;stroke-linejoin:miter;stroke-miterlimit:4;stroke-dasharray:none;stroke-opacity:1"
           id="path10156"
           d="m -64.073761,-532.21405 c 0.278007,0.20304 -0.136538,0.47492 -0.33747,0.46207 -0.544513,-0.0348 -0.734173,-0.69579 -0.586663,-1.13701 0.26386,-0.78925 1.231282,-1.02765 1.936543,-0.71126 1.035,0.46432 1.328405,1.77353 0.835856,2.73608 -0.656489,1.28292 -2.318112,1.63217 -3.535616,0.96045 -1.532105,-0.84529 -1.937487,-2.86378 -1.08505,-4.33515 1.032416,-1.78202 3.410073,-2.24369 5.13469,-1.20965 2.032402,1.21859 2.55045,3.95674 1.334243,5.93423 -0.968539,1.57479 -2.829601,2.41782 -4.653342,2.19778"
           transform="matrix(-1,0,0,-0.99980114,6.7857143,-71.428571)" />
        <path
           id="path10176"
           d="m 104.50054,439.74654 c 4.53822,6.18192 2.95182,15.07498 -3.18325,19.55951 -6.559233,4.79456 -15.979275,3.10529 -20.71879,-3.40951 -5.048623,-6.93968 -3.257279,-16.89137 3.634112,-21.88814 7.133219,-5.17211 17.326338,-3.52165 22.693048,3.38818 z"
           style="fill:#ff7f2a;fill-opacity:1;fill-rule:evenodd;stroke:none;stroke-width:6.40608549;stroke-linecap:butt;stroke-linejoin:miter;stroke-miterlimit:4;stroke-dasharray:none;stroke-opacity:1" />
        <path
           transform="matrix(1,0,0,1.000243,6.7857143,-71.428571)"
           d="m 86.458534,518.65466 c 0.308826,-0.39883 0.68999,0.21952 0.662895,0.51329 -0.07343,0.7961 -1.049291,1.0467 -1.689474,0.8125 -1.145135,-0.41893 -1.454523,-1.84569 -0.962105,-2.86566 0.722644,-1.49683 2.652286,-1.87272 4.041842,-1.11171 1.852059,1.01432 2.295248,3.46242 1.261316,5.21803 -1.301099,2.20926 -4.274204,2.71999 -6.39421,1.41092 -2.567612,-1.58545 -3.146,-5.08693 -1.560526,-7.57039 1.868426,-2.92668 5.900236,-3.57282 8.746578,-1.71013 3.286213,2.15054 4.000169,6.71393 1.859736,9.92276 -2.432095,3.64607 -7.527901,4.42789 -11.098946,2.00934 -4.006173,-2.71325 -4.855894,-8.34207 -2.158947,-12.27513 2.994122,-4.36644 9.156386,-5.2841 13.451314,-2.30855 4.726848,3.27478 5.712455,9.97082 2.458158,14.6275 -3.555273,5.08735 -10.785345,6.14093 -15.803683,2.60776 -5.447942,-3.83564 -6.569515,-11.59994 -2.757368,-16.97987 4.1159,-5.80859 12.414602,-6.99817 18.156051,-2.90697 6.169305,4.39608 7.426895,13.22931 3.056578,19.33223 -4.67619,6.53006 -14.044057,7.85568 -20.508418,3.20619 -6.89085,-4.95625 -8.284502,-14.85884 -3.355789,-21.68461 5.236252,-7.25167 15.673654,-8.71336 22.860787,-3.50539 1.287387,0.93287 2.440309,2.04931 3.415627,3.30477"
           id="path10158"
           style="fill:none;fill-rule:evenodd;stroke:#dd4d00;stroke-width:0.46750894;stroke-linecap:butt;stroke-linejoin:miter;stroke-miterlimit:4;stroke-dasharray:none;stroke-opacity:1" />
        <path
           id="path10179"
           d="m 102.49378,460.85298 c -1.5943,-1.36314 -1.65117,-3.82865 -0.29788,-5.37815 1.55084,-1.77565 4.32388,-1.83028 6.05801,-0.29259 1.9588,1.7369 2.01119,4.81542 0.28758,6.73252 -1.80421,2.00674 -4.93418,2.19869 -7.05497,0.5805 z"
           style="fill:#ff7f2a;fill-opacity:1;fill-rule:evenodd;stroke:none;stroke-width:2.59399128;stroke-linecap:butt;stroke-linejoin:miter;stroke-miterlimit:4;stroke-dasharray:none;stroke-opacity:1" />
        <path
           style="fill:none;fill-rule:evenodd;stroke:#dd4d00;stroke-width:4.84757566;stroke-linecap:butt;stroke-linejoin:miter;stroke-miterlimit:4;stroke-dasharray:none;stroke-opacity:1"
           id="path10162"
           d="m -387.51837,222.2812 c 2.78919,1.07079 -0.0673,4.28807 -1.77972,4.63583 -4.64052,0.9424 -7.72753,-4.16462 -7.49193,-8.19526 0.42143,-7.20987 7.98543,-11.39991 14.6108,-10.34804 9.72299,1.54366 15.14856,11.84631 13.20415,21.02634 -2.59159,12.23553 -15.71987,18.92774 -27.44188,16.06026 -14.75096,-3.60843 -22.72233,-19.59909 -18.91637,-33.85742 4.60952,-17.26876 23.48142,-26.52576 40.27296,-21.77248 19.78825,5.60157 30.33473,27.36569 24.62859,46.68851 -6.58796,22.30895 -31.25125,34.14739 -53.10405,27.48469 -24.83054,-7.57058 -37.96265,-35.13771 -30.34081,-59.51959 8.55056,-27.35278 39.02485,-41.77979 65.93514,-33.19691 10.69302,3.41047 20.19216,10.14081 27.04235,19.02196"
           transform="matrix(-0.0931876,0.02495848,-0.02496954,-0.09314629,74.470887,488.73017)" />
        <path
           id="path10171"
           d="m 92.296299,459.53186 c -2.474028,-2.45492 -2.263813,-6.54511 0.17216,-8.94412 2.789422,-2.7471 7.390866,-2.49607 10.074181,0.26319 3.0291,3.11484 2.73638,8.21385 -0.35505,11.17282 -3.051028,2.92031 -7.906225,3.05268 -11.233008,0.51714 z"
           style="fill:#ff7f2a;fill-rule:evenodd;stroke:none;stroke-width:1.57025409;stroke-linecap:butt;stroke-linejoin:miter;stroke-miterlimit:4;stroke-dasharray:none;stroke-opacity:1" />
        <path
           transform="matrix(-0.15402789,0.04120728,-0.04127165,-0.15378766,46.30098,505.85561)"
           d="m -387.51837,222.2812 c 2.78919,1.07079 -0.0673,4.28807 -1.77972,4.63583 -4.64052,0.9424 -7.72753,-4.16462 -7.49193,-8.19526 0.42143,-7.20987 7.98543,-11.39991 14.6108,-10.34804 9.72299,1.54366 15.14856,11.84631 13.20415,21.02634 -2.59159,12.23553 -15.71987,18.92774 -27.44188,16.06026 -14.75096,-3.60843 -22.72233,-19.59909 -18.91637,-33.85742 4.60952,-17.26876 23.48142,-26.52576 40.27296,-21.77248 19.78825,5.60157 30.33473,27.36569 24.62859,46.68851 -6.58796,22.30895 -31.25125,34.14739 -53.10405,27.48469 -24.83054,-7.57058 -37.96265,-35.13771 -30.34081,-59.51959 8.55056,-27.35278 39.02485,-41.77979 65.93514,-33.19691 10.69302,3.41047 20.19216,10.14081 27.04235,19.02196"
           id="path10160"
           style="fill:none;fill-rule:evenodd;stroke:#dd4d00;stroke-width:2.93444538;stroke-linecap:butt;stroke-linejoin:miter;stroke-miterlimit:4;stroke-dasharray:none;stroke-opacity:1" />
        <path
           id="path10182"
           d="m 96.839995,430.01983 c 2.831692,-1.08003 5.999705,0.55062 7.029975,3.3413 1.17786,3.19042 -0.66321,6.743 -3.80691,7.87976 -3.544192,1.28157 -7.473229,-0.77001 -8.71078,-4.27155 -1.065031,-3.0134 0.02734,-6.43327 2.5402,-8.37357 z"
           style="fill:#ff7f2a;fill-opacity:1;fill-rule:evenodd;stroke:none;stroke-width:1.82839096;stroke-linecap:butt;stroke-linejoin:miter;stroke-miterlimit:4;stroke-dasharray:none;stroke-opacity:1" />
        <path
           transform="matrix(3.5332013e-5,-0.13690578,0.13677707,-3.533313e-5,67.874607,381.93143)"
           d="m -387.51837,222.2812 c 2.78919,1.07079 -0.0673,4.28807 -1.77972,4.63583 -4.64052,0.9424 -7.72753,-4.16462 -7.49193,-8.19526 0.42143,-7.20987 7.98543,-11.39991 14.6108,-10.34804 9.72299,1.54366 15.14856,11.84631 13.20415,21.02634 -2.59159,12.23553 -15.71987,18.92774 -27.44188,16.06026 -14.75096,-3.60843 -22.72233,-19.59909 -18.91637,-33.85742 4.60952,-17.26876 23.48142,-26.52576 40.27296,-21.77248 19.78825,5.60157 30.33473,27.36569 24.62859,46.68851 -6.58796,22.30895 -31.25125,34.14739 -53.10405,27.48469 -24.83054,-7.57058 -37.96265,-35.13771 -30.34081,-59.51959 8.55056,-27.35278 39.02485,-41.77979 65.93514,-33.19691 10.69302,3.41047 20.19216,10.14081 27.04235,19.02196"
           id="path10164"
           style="fill:none;fill-rule:evenodd;stroke:#dd4d00;stroke-width:3.41684389;stroke-linecap:butt;stroke-linejoin:miter;stroke-miterlimit:4;stroke-dasharray:none;stroke-opacity:1" />
        <path
           id="path10174"
           style="fill:#ff7f2a;fill-rule:evenodd;stroke:none;stroke-width:3;stroke-linecap:butt;stroke-linejoin:miter;stroke-miterlimit:4;stroke-dasharray:none;stroke-opacity:1"
           d="m 87.912463,463.6425 c 6.334692,0.55269 9.579453,-1.43928 12.131497,-4.0017 l -1.979787,-2.27467 c -3.758699,3.83369 -9.262532,2.04772 -14.532533,0.29487 l -0.08211,5.72816 z" />
        <path
           d="m 87.912463,463.6425 c 6.334692,0.55269 10.506159,-1.79732 12.826537,-4.75993 M 83.53164,457.661 c 5.154476,1.63326 10.74791,3.55185 14.427228,-0.29487"
           style="fill:none;fill-rule:evenodd;stroke:#dd4d00;stroke-width:0.46756572;stroke-linecap:butt;stroke-linejoin:miter;stroke-miterlimit:4;stroke-dasharray:none;stroke-opacity:1"
           id="path10168" />
        <path
           id="path10116"
           d="m 105.06973,423.20412 -33.339442,0.0422 0,2.44319 1.923733,2.10601 2.395141,0 0,32.63296 -2.382923,0 -1.935951,2.65088 0,0.99787 15.965043,0 0,-0.99787 -1.935951,-2.65088 -2.382923,0 0,-13.56925 c 0,0 7.767671,-0.15035 20.075583,-0.15035 1.84672,0 7.04359,-2.31369 7.08898,-11.8576 0.0474,-9.97261 -5.47129,-11.64715 -5.47129,-11.64716 z m -21.693273,7.13989 17.509903,0 c 1.4711,0 2.56568,1.7187 2.56568,4.50726 0,2.92043 -1.53043,5.37066 -2.81833,5.37066 -12.134142,0 -17.257253,-0.14449 -17.257253,-0.14449 z"
           style="fill:#ffffff;fill-rule:evenodd;stroke:#6b5453;stroke-width:0.93513143;stroke-linecap:butt;stroke-linejoin:miter;stroke-miterlimit:4;stroke-dasharray:none;stroke-opacity:1" />
        <path
           style="fill:none;fill-opacity:1;fill-rule:evenodd;stroke:#000000;stroke-width:0.08339985px;stroke-linecap:butt;stroke-linejoin:miter;stroke-opacity:1"
           d="m 11.048828,2.9296875 0.357422,1.2558594 2.470703,0 0,12.6914061 0,18.130859 -2.470703,0 -0.357422,0.85685 4.585938,0 4.58789,0 -0.357422,-0.85685 -2.828125,0 0,-15.293313 17.220703,0 c 4.495564,0 5.910157,-4.916569 5.910157,-7.761371 0,-6.2568485 -3.092056,-9.0234371 -4.055803,-9.0234371 l -3.323104,0 -18.912109,10e-8 z m 5.988281,2.7773437 8.601563,0 9.412667,0 c 1.486203,0 2.472099,4.5366708 2.472099,6.2460938 0,1.040598 -0.589551,5.010815 -3.210938,5.010815 l -17.275391,0 z"
           transform="matrix(1.1689143,0,0,1.1689143,61.436215,421.67463)"
           id="path10134" />
      </g>
    </g>
  </g>
</svg>
