<?xml version="1.0" encoding="UTF-8" standalone="no"?>
<svg
   xmlns:dc="http://purl.org/dc/elements/1.1/"
   xmlns:cc="http://creativecommons.org/ns#"
   xmlns:rdf="http://www.w3.org/1999/02/22-rdf-syntax-ns#"
   xmlns:svg="http://www.w3.org/2000/svg"
   xmlns="http://www.w3.org/2000/svg"
   xmlns:xlink="http://www.w3.org/1999/xlink"
   xmlns:sodipodi="http://sodipodi.sourceforge.net/DTD/sodipodi-0.dtd"
   xmlns:inkscape="http://www.inkscape.org/namespaces/inkscape"
   width="73"
   height="82.000053"
   preserveAspectRatio="xMinYMin slice"
   viewBox="0 0 73 82.000054"
   id="svg20155"
   version="1.1"
   inkscape:version="0.91 r"
   sodipodi:docname="old-icons.svg">
  <sodipodi:namedview
     pagecolor="#ffffff"
     bordercolor="#666666"
     borderopacity="1"
     objecttolerance="10"
     gridtolerance="10"
     guidetolerance="10"
     inkscape:pageopacity="0"
     inkscape:pageshadow="2"
     inkscape:window-width="1920"
     inkscape:window-height="1161"
     id="namedview33741"
     showgrid="false"
     inkscape:zoom="4.0701729"
     inkscape:cx="83.848465"
     inkscape:cy="70.899853"
     inkscape:window-x="1920"
     inkscape:window-y="0"
     inkscape:window-maximized="1"
     inkscape:current-layer="svg20155"
     showguides="true"
     inkscape:guide-bbox="true"
     inkscape:snap-bbox="true"
     inkscape:bbox-paths="true"
     inkscape:snap-smooth-nodes="true"
     inkscape:object-nodes="true"
     inkscape:snap-intersection-paths="true"
     inkscape:snap-midpoints="true">
    <sodipodi:guide
       position="50.957574,68.536063"
       orientation="1,0"
       id="guide4952" />
    <sodipodi:guide
       position="50.957574,68.541654"
       orientation="0,1"
       id="guide4954" />
    <sodipodi:guide
       position="50.957574,71.304954"
       orientation="0,1"
       id="guide4956" />
    <sodipodi:guide
       position="50.957574,47.304954"
       orientation="0,1"
       id="guide4958" />
    <sodipodi:guide
       position="50.957574,44.541654"
       orientation="0,1"
       id="guide4960" />
  </sodipodi:namedview>
  <defs
     id="defs20157">
    <pattern
       xlink:href="#pattern27875"
       id="pattern10562"
       patternTransform="matrix(0.12564472,0,0,0.12564472,18.361788,27.7913)" />
    <pattern
       xlink:href="#pattern10552"
       id="pattern10560"
       patternTransform="matrix(0.14548454,0,0,0.14548454,28.986947,-26.60566)" />
    <pattern
       xlink:href="#pattern10552"
       id="pattern10556"
       patternTransform="matrix(0.16678317,0,0,0.16678317,16,-68.92709)" />
    <pattern
       xlink:href="#pattern27875"
       id="pattern10552"
       patternTransform="matrix(0.28928571,0,0,0.24285715,3.4512313,1011.1494)" />
    <pattern
       xlink:href="#sepia_grunge"
       id="pattern27875"
       patternTransform="matrix(0.28928572,0,0,0.24285715,3.4512359,1011.1495)" />
    <pattern
       xlink:href="#sepia_grunge"
       id="pattern27869"
       patternTransform="matrix(0.19933821,0.00178943,-0.00178943,0.19933821,-28.820419,49.6349)" />
    <pattern
       patternUnits="userSpaceOnUse"
       width="400"
       height="400"
       patternTransform="translate(0,0) scale(1,1)"
       id="sepia_grunge">
      <g
         id="sepia_grunge_pattern"
         transform="translate(0,-652.36216)">
        <title
           id="title10108">sepia grunge pattern</title>
        <rect
           style="color:#000000;clip-rule:nonzero;display:inline;overflow:visible;visibility:visible;opacity:1;isolation:auto;mix-blend-mode:normal;color-interpolation:sRGB;color-interpolation-filters:linearRGB;solid-color:#000000;solid-opacity:1;fill:#8d706f;fill-opacity:1;fill-rule:nonzero;stroke:none;stroke-width:4;stroke-linecap:butt;stroke-linejoin:miter;stroke-miterlimit:4;stroke-dasharray:none;stroke-dashoffset:0;stroke-opacity:1;marker:none;marker-start:none;marker-mid:none;marker-end:none;color-rendering:auto;image-rendering:auto;shape-rendering:auto;text-rendering:auto;enable-background:accumulate"
           id="rect10080"
           width="97.984795"
           height="76.771591"
           x="135.36044"
           y="769.51947" />
        <rect
           y="970.53986"
           x="46.467018"
           height="76.771591"
           width="97.984795"
           id="rect10082"
           style="color:#000000;clip-rule:nonzero;display:inline;overflow:visible;visibility:visible;opacity:1;isolation:auto;mix-blend-mode:normal;color-interpolation:sRGB;color-interpolation-filters:linearRGB;solid-color:#000000;solid-opacity:1;fill:#8d706f;fill-opacity:1;fill-rule:nonzero;stroke:none;stroke-width:4;stroke-linecap:butt;stroke-linejoin:miter;stroke-miterlimit:4;stroke-dasharray:none;stroke-dashoffset:0;stroke-opacity:1;marker:none;marker-start:none;marker-mid:none;marker-end:none;color-rendering:auto;image-rendering:auto;shape-rendering:auto;text-rendering:auto;enable-background:accumulate" />
        <path
           style="color:#000000;clip-rule:nonzero;display:inline;overflow:visible;visibility:visible;opacity:1;isolation:auto;mix-blend-mode:normal;color-interpolation:sRGB;color-interpolation-filters:linearRGB;solid-color:#000000;solid-opacity:1;fill:#6b5453;fill-opacity:1;fill-rule:nonzero;stroke:none;stroke-width:4;stroke-linecap:butt;stroke-linejoin:miter;stroke-miterlimit:4;stroke-dasharray:none;stroke-dashoffset:0;stroke-opacity:1;marker:none;marker-start:none;marker-mid:none;marker-end:none;color-rendering:auto;image-rendering:auto;shape-rendering:auto;text-rendering:auto;enable-background:accumulate"
           d="m 0,0 0,400 347.14258,0 41.42969,0 L 400,400 400,0 0,0 Z m 360.80078,16.597656 c 1.47694,0.31156 2.32316,0.918728 2.7832,1.705078 -0.61619,0.72806 -1.08406,1.481288 -0.63281,2.392578 l 2.45703,-0.291015 c -0.49824,0.97268 -1.22519,1.571901 -1.27539,3.275391 -1.58351,0.623229 -2.74097,0.48187 -3.44726,-0.47461 -0.0784,-3.6658 0.0249,-5.077732 0.11523,-6.607422 z m 15.40625,10.271485 c 4.06936,0.0335 5.63212,0.195183 7.32617,0.345703 -0.3942,1.62825 -1.09492,2.544787 -1.98242,3.029297 -0.78744,-0.70755 -1.607,-1.249957 -2.63281,-0.779297 l 0.24219,2.736328 c -1.06271,-0.58473 -1.70556,-1.411758 -3.59375,-1.523438 -0.63934,-1.77722 -0.4437,-3.056493 0.64062,-3.808593 z m -254.81445,26.74414 c 12.13716,1.877063 3.62058,15.892499 -0.92383,13.023438 -0.0295,0.08857 -0.0643,0.202349 -0.0937,0.291015 -0.88972,-0.45129 -1.32499,-0.98184 -1.48438,-1.5625 0.11062,-0.07682 0.21278,-0.157489 0.31055,-0.240234 -0.19352,-0.379473 -0.3681,-0.815093 -0.51562,-1.326172 l -0.60157,-0.08789 c 0.15123,-0.167333 0.30931,-0.31211 0.4668,-0.458985 -0.22134,-0.947016 -0.37416,-2.071733 -0.41992,-3.449219 7.56391,1.6754 1.1637,-3.375803 3.26172,-6.189453 z m -5.3418,2.851563 c 0.11006,-0.01747 0.22489,-0.0098 0.34375,0.01953 0.98906,1.14115 1.32751,1.614427 1.70117,2.123047 -0.55001,0.28979 -0.97741,0.319586 -1.33008,0.191406 0.004,-0.3928 -0.047,-0.753738 -0.42968,-0.923828 l -0.70117,0.738281 c -0.098,-0.43932 -0.0267,-0.820027 -0.45899,-1.373047 0.2534,-0.46056 0.54483,-0.722987 0.875,-0.77539 z m 186.43164,0.335937 c 10.45295,3.635998 6.15955,5.108803 2.17188,4.558594 -0.005,0.02383 -0.007,0.04857 -0.0117,0.07227 -1.29637,0.17235 -2.46512,0.508279 -2.8457,1.849609 l 2.76562,1.966797 c -0.39876,0.150621 -0.79037,0.26002 -1.18164,0.371094 0.49273,0.579384 0.64888,1.202279 0.44141,1.871093 -2.60933,2.00566 -3.68557,2.679815 -4.83985,3.427735 -0.27501,-0.605966 -0.41584,-1.138261 -0.45117,-1.613281 -0.24059,0.06683 -0.4923,0.10901 -0.76367,0.107421 l 0,-0.002 c -1.76173,-1.259431 -2.96978,-2.169984 -3.94727,-2.935547 -0.49703,0.206104 -0.92462,0.463267 -0.93359,1.03711 l 1.31055,0.490234 c -0.50293,0.36005 -1.02317,0.47447 -1.49024,1.318359 -0.95819,-0.09722 -1.50415,-0.470435 -1.61133,-1.134765 0.70804,-1.447877 1.09978,-2.13829 1.45508,-2.744141 -0.51649,-0.425901 -1.07142,-0.874491 -1.53711,-1.267578 1.4665,-1.28844 2.74918,-1.69501 3.91992,-1.5625 0.27688,1.20203 0.69497,2.271426 1.98829,2.509766 l 0.30664,-0.53125 c -0.0508,-0.269476 -0.0748,-0.548831 -0.0449,-0.845703 1.62347,-1.870299 2.78271,-3.138201 3.72657,-4.125 -0.3563,-0.729222 -0.007,-1.669543 1.57226,-2.81836 z m 50.5293,3.289063 c 13.31604,4.15781 -5.73809,5.97461 0,0 z m -223.72266,0.998047 c 0.47283,0.12797 0.73643,0.340305 0.8711,0.603515 -0.21296,0.22462 -0.37953,0.460152 -0.25,0.763672 l 0.80273,-0.04883 c -0.17923,0.30604 -0.42721,0.486079 -0.47461,1.037109 -0.52447,0.17297 -0.89608,0.106035 -1.10742,-0.216797 0.0418,-1.189149 0.1013,-1.644651 0.1582,-2.138671 z m 171.36719,5.941406 c -0.0981,0.253267 -0.20833,0.479818 -0.32422,0.693359 0.18379,-0.12538 0.34544,-0.294769 0.4707,-0.537109 l -0.14648,-0.15625 z m -239.048828,3 c 0.418221,0.02732 0.704254,0.174513 0.867187,0.611328 0.15869,0.72138 0.74594,1.715144 0.34375,2.308594 -0.89164,-0.11118 -1.274461,-0.528094 -1.488281,0.285156 -0.0817,0.5996 0.752318,1.240907 0.01758,1.748047 -0.77909,-0.41427 -0.767682,-0.03368 -1.826172,-1.234375 0.21134,-1.81826 -0.212773,-1.841513 0.878907,-3.257813 0.0434,-0.12596 0.03658,-0.264318 -0.01172,-0.386718 0.279372,-0.02617 0.530548,-0.05303 0.755859,-0.06836 0.168984,-0.0115 0.323484,-0.01496 0.462891,-0.0059 z m -3.009766,17.75 c 2.49752,3.13 3.133933,1.530453 5.376953,8.439453 -3.868483,6.68935 -2.734567,7.92893 -8.259765,11.22852 l 0,-12.763676 c 0.980998,-2.395516 -0.871579,-6.160776 2.882812,-6.904297 z m 6.00586,16.923823 c 1.57226,0.59714 1.686905,0.22275 2.703125,1.51368 0.10247,0.0669 0.225813,0.0917 0.345703,0.0762 -0.1583,1.019 -0.188323,1.65487 -0.945313,1.73828 -0.6783,-0.0208 -1.696535,0.27888 -2.134765,-0.21289 0.29954,-0.7693 0.756468,-1.01533 0.08008,-1.38867 -0.51578,-0.2076 -1.273987,0.38969 -1.560547,-0.37891 0.54424,-0.60088 0.204059,-0.67468 1.511719,-1.34766 z m 121.277344,28.18946 c 1.2578,-0.017 2.07248,0.41633 2.41992,1.32422 -0.84481,3.32023 -1.2905,4.56517 -1.7539,5.91992 -1.25202,-0.64937 -1.86224,-1.40561 -2.08008,-2.22852 0.73667,-0.50164 1.34671,-1.06484 1.16797,-1.99804 l -2.28711,-0.35157 c 0.69152,-0.75138 1.4962,-1.10957 1.96679,-2.63086 0.19768,-0.0207 0.38672,-0.0327 0.56641,-0.0351 z m -8.94727,4.07617 c 1.66158,0.81535 2.39718,1.84855 2.14649,3.11719 -0.15751,0.15001 -0.26234,0.24319 -0.41016,0.38281 7.35293,5.06658 -3.41206,6.31454 1.13672,13.07031 -6.42708,1.93028 -9.43429,-7.62269 -6.82226,-12.00195 0.015,-0.0603 0.0149,-0.12662 0.0332,-0.18555 0.0275,-0.001 0.0527,-0.007 0.0801,-0.008 0.46769,-0.7112 1.09337,-1.26976 1.89257,-1.59375 l -1.62304,-1.4043 c 1.14676,-0.31276 2.16099,-0.16842 3.5664,-1.37695 z m 178.74805,7.36914 c 0.29788,-0.0131 0.64955,-0.0121 1.06055,0.006 8.29002,3.53835 5.70914,7.70879 2.46875,9.25586 0.0526,0.18846 0.12513,0.3786 0.24414,0.57227 l 3.14258,-0.66797 c -0.52891,1.316 -1.39635,2.17921 -1.25977,4.38671 -1.97281,0.99269 -3.48779,0.94559 -4.51367,-0.20703 -0.15915,-1.4074 -0.26347,-2.5052 -0.34766,-3.48047 -1.59126,-0.1453 -2.42236,-1.47179 -0.53906,-4.60937 0.11626,-0.0642 0.18546,-0.13635 0.26758,-0.20703 -0.002,-0.078 -0.009,-0.17756 -0.0117,-0.25586 0.0822,0.01 0.1549,0.0258 0.23437,0.0371 1.12054,-1.68159 -4.84046,-4.64967 -0.74609,-4.83008 z m -6.07812,7.78516 0,0.002 c 3.01766,1.73061 4.1135,2.50594 5.3125,3.32812 -0.97615,1.04785 -1.88182,1.43679 -2.7461,1.42579 -0.29009,-0.85717 -0.67521,-1.60625 -1.63672,-1.68555 l -0.96484,2.14062 c -0.54665,-0.88104 -0.67915,-1.766 -2.03906,-2.64062 0.26858,-1.59202 0.95115,-2.46447 2.07422,-2.57031 z m -170.36524,6.15429 c 0.89461,1.89331 0.93221,3.33403 0.44922,4.50196 -1.32134,-0.0702 -2.54737,0.0456 -3.17578,1.30859 l 2.38476,2.47266 c -1.49272,0.26537 -2.76506,-0.0356 -4.68945,1.33789 -2.01691,-1.22693 -2.83357,-2.62626 -2.36914,-4.20899 3.98474,-3.16158 5.63436,-4.2288 7.40039,-5.41211 z M 10.404297,177.63867 c 0.441982,0.0109 0.844666,0.0983 1.214844,0.24805 -0.05061,1.11372 0.05487,2.14468 1.123047,2.66601 l 2.066406,-2.02343 c 0.231647,1.24759 -0.0045,2.31741 1.138672,3.91211 0.138653,-0.38857 0.413326,-0.83132 0.876953,-1.33985 11.180424,3.22409 -2.016118,5.26833 -0.916016,1.46094 -1.007139,1.63737 -2.161446,2.30553 -3.472656,1.93164 -2.6893856,-3.33693 -3.599092,-4.71889 -4.607422,-6.19922 0.993375,-0.4787 1.8395295,-0.67432 2.576172,-0.65625 z m 23.189453,24.43555 c 1.338251,0.45515 2.239659,1.05438 2.833984,1.7539 l 0,1.6211 c -0.606985,0.70279 -0.964648,1.47858 -0.615234,2.4668 l 0.615234,0.002 0,6.29297 c -0.239263,-0.57683 -0.469526,-1.20403 -0.691406,-1.88672 -1.588694,0.17459 -2.72477,-0.27603 -3.367187,-1.4082 0.48719,-4.92793 0.856249,-6.80532 1.224609,-8.8418 z m -8.296875,4.36523 c 4.527427,2.06629 -2.981177,9.31197 0,0 z m 224.996095,30.41211 c 0.12071,-0.007 0.24,-0.004 0.35937,0.008 0.31832,0.0317 0.63081,0.13269 0.93946,0.30078 0.21331,0.4333 0.35663,0.74404 0.53906,1.12304 0.16438,-0.0357 0.32892,-0.0712 0.52344,-0.15039 0.78339,0.77454 1.00261,1.49752 0.62109,2.16602 -0.0718,0.0336 -0.0931,0.0402 -0.16211,0.0723 0.77232,1.70118 1.21541,2.81942 1.6543,3.92774 -1.73841,0.40368 -2.94631,0.17549 -3.83203,-0.4375 0.24608,-0.90217 0.36396,-1.76958 -0.13477,-2.46875 -0.57437,0.23403 -1.01787,0.39816 -1.46875,0.5664 -0.0216,-0.10226 -0.0251,-0.18762 -0.0391,-0.2832 l -1.36328,0.8457 c 0.0482,-1.29124 0.52746,-2.29777 -0.26953,-4.14843 0.90942,-0.95728 1.78785,-1.47175 2.63281,-1.52149 z m 6.78711,4.04688 c 0.40065,-0.0326 0.75542,0.0841 1.06445,0.35547 0.5922,2.46647 0.72881,3.43702 0.89258,4.48437 -1.04421,0.007 -1.70426,-0.27826 -2.13086,-0.74219 0.30942,-0.58275 0.51519,-1.16125 0.0762,-1.71093 l -1.61914,0.55859 c 0.1938,-0.73078 0.59737,-1.24341 0.38086,-2.40234 0.4894,-0.32706 0.93529,-0.51038 1.33594,-0.54297 z m -12.44922,4.61914 c 1.19942,0.32524 1.86569,0.8653 2.20703,1.5332 -0.54059,0.5696 -0.95912,1.16537 -0.63086,1.93555 l 2.0332,-0.12305 c -0.45508,0.77621 -1.0802,1.23492 -1.20117,2.63281 -1.33078,0.43816 -2.27672,0.26849 -2.8125,-0.55078 0.10734,-3.01685 0.25839,-4.17458 0.4043,-5.42773 z m 15.12891,2.09765 c 0.62761,-0.0143 1.23091,0.24374 1.74804,0.88477 6.35358,1.94023 5.78305,4.65009 3.29297,6.12695 -0.28773,1.13666 -0.91887,1.8618 -1.92578,2.13867 l -0.002,0 c -1.24782,-0.45026 -2.22789,-0.82128 -3.0918,-1.1582 -0.78213,-0.12702 -1.51054,-0.4077 -2.11523,-0.86328 -0.42299,-0.18032 -0.76618,-0.33637 -1.12696,-0.49805 -3.99205,0.90355 -0.0499,-6.55609 3.22071,-6.63086 z m -90.86719,9.09571 c 8.3537,2.01426 -5.74014,6.0631 0.27148,0.65039 l -0.27148,-0.65039 z m -126.093752,1.10547 c 0.341803,0.32137 0.560884,0.6293 0.695313,0.92773 0.950454,0.68229 1.35413,1.49229 1.162109,2.43945 -2.73308,2.57752 -3.880429,3.46722 -5.105469,4.44922 -0.77758,-1.33686 -0.895141,-2.39528 -0.613281,-3.28515 0.818392,-0.0265 1.573192,-0.15218 2.023438,-0.75977 -0.106429,-0.1604 -0.18428,-0.33665 -0.203126,-0.54687 0.04042,-0.0697 0.05499,-0.0879 0.09375,-0.1543 l -1.570312,-1.3711 c 1.004504,-0.26865 1.904396,-0.1798 3.091797,-1.07031 0.139534,-0.20476 0.293468,-0.43784 0.425781,-0.6289 z m 216.251952,1.82031 c 0.2839,-0.0235 0.49045,0.0672 0.61719,0.27539 -0.0676,0.99976 -0.13176,1.38069 -0.19336,1.79492 -0.39443,-0.12076 -0.60876,-0.30601 -0.71484,-0.53125 0.18544,-0.18317 0.3311,-0.37768 0.23046,-0.63672 l -0.67578,0.0195 c 0.1593,-0.25263 0.37068,-0.39691 0.42578,-0.85937 0.11155,-0.0328 0.21592,-0.0547 0.31055,-0.0625 z m 18.75195,13.08789 c 4.47259,0.55974 6.17127,0.94088 8.01563,1.32422 -0.64292,1.74066 -1.53167,2.65913 -2.57031,3.07812 -0.77538,-0.87955 -1.60786,-1.58324 -2.79688,-1.19726 l -0.0859,3.04101 c -1.094,-0.77983 -1.69291,-1.77121 -3.75585,-2.13672 -0.47501,-2.03734 -0.0962,-3.4213 1.19335,-4.10937 z m 79.0293,24.44531 c 0.19256,-0.01 0.35878,0.0248 0.50781,0.0918 -0.0154,0.18497 -0.0109,0.36017 0.043,0.51172 0.38276,-0.15097 0.79038,-0.28951 1.25196,-0.39844 9.80241,0.91022 4.74912,5.6541 6.5957,9.52539 0.86759,0.0127 1.68271,0.0318 2.42383,0.0566 -0.14178,0.76876 -0.35327,1.3984 -0.61719,1.92188 0.49007,0.33116 1.07026,0.64715 1.78516,0.9414 -1.65321,1.99209 -3.80378,2.45082 -5.94532,1.97461 l 0.1543,1.06055 c -1.23534,-0.59346 -2.01129,-1.48614 -4.14844,-1.49414 -0.29945,-0.70732 -0.46904,-1.34586 -0.51367,-1.91992 -3.9595,-3.31418 -6.17688,-8.9761 -1.71094,-11.34571 -0.19971,-0.29741 -0.33887,-0.52172 -0.48437,-0.7539 0.24815,-0.10822 0.46564,-0.16192 0.6582,-0.17188 z m 14.33789,5.47852 c 0.24418,0.0105 0.48779,0.0726 0.73047,0.1875 1.62838,2.8841 2.14892,4.05252 2.73047,5.30859 -1.30858,0.38296 -2.24129,0.26137 -2.94336,-0.16797 0.17938,-0.84267 0.23086,-1.64327 -0.51758,-2.17578 l -1.83203,1.28125 c -0.019,-0.987 0.30298,-1.77509 -0.38477,-3.15234 0.74557,-0.87939 1.48427,-1.31263 2.2168,-1.28125 z m -342.519529,2.39258 c 0.386661,1.21459 0.445994,2.19467 0.271484,3.00976 0.0071,-0.0141 0.01454,-0.022 0.02148,-0.0371 0.413,0.0114 0.65781,0.15277 0.72461,0.4336 -0.33116,0.82631 -0.488467,1.13181 -0.654297,1.46484 -0.30031,-0.21005 -0.430986,-0.42706 -0.458984,-0.64649 0.20688,-0.10403 0.38324,-0.22617 0.36914,-0.47265 l -0.21289,-0.0625 c -0.05884,0.13816 -0.123348,0.27092 -0.197266,0.39844 -1.17556,-0.22152 -2.287203,-0.26527 -3.001953,0.79101 l 1.839843,2.50196 c -1.259262,0.0538 -2.302213,-0.28473 -3.929687,0.43554 l -0.662109,0 c -1.472574,-1.27554 -1.964549,-2.56117 -1.388672,-3.85547 3.95017,-2.3545 5.554757,-3.11267 7.279297,-3.96093 z m 17.09375,7.01367 c 0.294365,0.26959 0.537974,0.53707 0.757812,0.80273 l -5.023437,0 -0.273438,-0.42383 c 1.41586,0.027 2.527103,0.53137 4.539063,-0.3789 z m -9.69336,0.78906 c 0.05019,0.002 0.09864,0.0101 0.148438,0.0137 l -0.525391,0 c 0.124685,-9.7e-4 0.254333,-0.0196 0.376953,-0.0137 z m 214.644529,19.31641 c -1.95611,4.17938 -0.98166,0.0944 0,0 z M 86.623047,344.76172 c 3.092002,6.07102 -3.790522,2.23929 0,0 z m 7.369141,4.78516 c 4.062207,2.12722 2.806871,5.67438 1.02539,7.19726 0.507587,-0.29704 1.008233,-0.44326 1.501953,-0.4082 0.308083,0.0219 0.613523,0.10992 0.916016,0.26367 1.95478,3.701 2.569683,5.19543 3.259763,6.80273 -1.66648,0.4374 -2.837322,0.2508 -3.708982,-0.3164 0.2565,-1.0582 0.348455,-2.06643 -0.578125,-2.76563 l -2.361328,1.55469 c 0.01102,-1.2475 0.446933,-2.23199 -0.373047,-3.99609 0.239932,-0.26741 0.477892,-0.49844 0.714844,-0.69727 -1.449809,0.78903 -2.884526,0.0834 -1.966797,-3.87305 -4.164628,0.6392 0.848083,-3.44314 1.570313,-3.76171 z m 30.728512,8.78124 c 0.11039,-0.005 0.22097,-0.003 0.33008,0.008 0.29096,0.0299 0.57765,0.12279 0.85938,0.27734 1.73975,3.5615 2.27758,4.99511 2.88281,6.53711 -1.59058,0.3642 -2.69383,0.15079 -3.50195,-0.41211 0.27438,-0.9939 0.39132,-1.94526 -0.46485,-2.63476 l -2.27929,1.40039 c 0.0473,-1.1805 0.48714,-2.09867 -0.23633,-3.79297 0.83417,-0.87275 1.63742,-1.33981 2.41015,-1.38282 z m -65.472653,15.28321 c 7.306724,8.5934 -8.404902,9.8507 0,0 z m 55.617183,1.13672 c 1.0479,0.2418 1.60116,0.72957 1.62696,1.48047 l -0.002,0 c -1.2709,1.9375 -1.82951,2.63589 -2.42382,3.40039 -0.65796,-0.6906 -0.88145,-1.30862 -0.83985,-1.88282 0.58142,-0.1589 1.09465,-0.38343 1.18555,-1.01953 l -1.38477,-0.72851 c 0.60753,-0.3285 1.20238,-0.3805 1.83789,-1.25 z"
           transform="translate(0,652.36216)"
           id="rect24751" />
      </g>
    </pattern>
  </defs>
  <metadata
     id="metadata20160">
    <rdf:RDF>
      <cc:Work
         rdf:about="">
        <dc:format>image/svg+xml</dc:format>
        <dc:type
           rdf:resource="http://purl.org/dc/dcmitype/StillImage" />
        <dc:title></dc:title>
      </cc:Work>
    </rdf:RDF>
  </metadata>
  <path
     inkscape:connector-curvature="0"
     id="path10541"
     d="m 4.356995,68.1492 c -2.02421,-0.01 -3.8390699,1.4102 -4.2656299,3.4688 -0.4875,2.3535 1.0244499,4.6553 3.3769499,5.1425 0.6331,0.1309 1.26,0.1068 1.8515695,-0.029 l 3.1035102,4.879 c 0.24875,0.3911 0.77281,0.5078 1.16407,0.2578 l 0.8183493,-0.5196 c 0.39,-0.2485 0.50657,-0.7709 0.25782,-1.1621 L 7.5991747,75.3702 c 0.48669,-0.5494 0.85254,-1.2183 1.01172,-1.9883 0.4875,-2.3526 -1.02445,-4.6562 -3.3769502,-5.1425 -0.29422,-0.061 -0.5877795,-0.089 -0.8769495,-0.09 z m 0,0.9961 c 0.22285,5e-4 0.44711,0.023 0.6738195,0.07 1.8125,0.376 2.9817202,2.1509 2.6054702,3.9648 -0.3750002,1.8134 -2.1510902,2.9786 -3.9648397,2.6036 -1.8125,-0.375 -2.9804699,-2.1514 -2.60547,-3.9649 0.32922,-1.5872 1.73106,-2.6773 3.29102,-2.6738 z m 0.6796795,0.7422 -0.4492095,0.5781 c 0,0 1.1385095,0.2237 1.8222595,1.3711 0.3725,0.6265 0.34969,0.8144 0.58594,1.5293 0,0 0.0969,-1.3554 -0.45313,-2.2207 -0.55,-0.8622 -1.50586,-1.2578 -1.50586,-1.2578 z"
     style="fill:url(#pattern27869);fill-opacity:1;fill-rule:evenodd;stroke:none" />
  <path
     sodipodi:nodetypes="cccc"
     inkscape:connector-curvature="0"
     id="rect2985"
     d="m 29.189333,50.0554 -15.58412,0 L 21.347433,62 Z"
     style="fill:url(#pattern10562);fill-opacity:1;stroke:none" />
  <path
     style="fill:url(#pattern10560);fill-opacity:1;stroke:none"
     d="M 47.792969 24 L 29.396484 36.076172 L 47.792969 48 L 50.957031 37.458984 L 55.710938 37.458984 L 55.710938 34.695312 L 50.957031 34.695312 L 47.792969 24 z M 47.660156 24.818359 L 50.316406 36.076172 L 31.064453 36.076172 L 47.660156 24.818359 z "
     id="path10550" />
  <path
     style="fill:url(#pattern10556);fill-opacity:1;stroke:none"
     d="M 54.123047 0 L 50.957031 10.695312 L 46.203125 10.695312 L 46.203125 13.458984 L 50.957031 13.458984 L 54.123047 24 L 72.517578 12.076172 L 54.123047 0 z M 54.255859 0.81835938 L 70.849609 12.076172 L 51.599609 12.076172 L 54.255859 0.81835938 z "
     id="path10554" />
</svg>
