<?xml version="1.0" encoding="UTF-8" standalone="no"?>
<svg
   xmlns:dc="http://purl.org/dc/elements/1.1/"
   xmlns:cc="http://creativecommons.org/ns#"
   xmlns:rdf="http://www.w3.org/1999/02/22-rdf-syntax-ns#"
   xmlns:svg="http://www.w3.org/2000/svg"
   xmlns="http://www.w3.org/2000/svg"
   xmlns:sodipodi="http://sodipodi.sourceforge.net/DTD/sodipodi-0.dtd"
   xmlns:inkscape="http://www.inkscape.org/namespaces/inkscape"
   version="1.1"
   id="svg2"
   viewBox="0 0 100 100"
   preserveAspectRatio="xMinYMin slice"
   height="100"
   width="100"
   inkscape:version="0.91 r"
   sodipodi:docname="rough_border.svg">
  <sodipodi:namedview
     pagecolor="#ffffff"
     bordercolor="#666666"
     borderopacity="1"
     objecttolerance="10"
     gridtolerance="10"
     guidetolerance="10"
     inkscape:pageopacity="0"
     inkscape:pageshadow="2"
     inkscape:window-width="1920"
     inkscape:window-height="1161"
     id="namedview10859"
     showgrid="true"
     inkscape:zoom="7.4167644"
     inkscape:cx="10.927504"
     inkscape:cy="90.827976"
     inkscape:window-x="1920"
     inkscape:window-y="0"
     inkscape:window-maximized="1"
     inkscape:current-layer="svg2"
     inkscape:object-nodes="true"
     inkscape:snap-intersection-paths="false"
     inkscape:snap-smooth-nodes="false"
     inkscape:object-paths="true"
     inkscape:snap-page="true"
     inkscape:snap-bbox="true"
     inkscape:bbox-paths="true"
     inkscape:snap-nodes="true"
     inkscape:bbox-nodes="true"
     fit-margin-top="0"
     fit-margin-left="0"
     fit-margin-right="0"
     fit-margin-bottom="0"
     inkscape:snap-bbox-edge-midpoints="true">
    <inkscape:grid
       type="xygrid"
       id="grid16554"
       originx="3.9e-06"
       originy="-60.042024" />
  </sodipodi:namedview>
  <defs
     id="defs4" />
  <metadata
     id="metadata7">
    <rdf:RDF>
      <cc:Work
         rdf:about="">
        <dc:format>image/svg+xml</dc:format>
        <dc:type
           rdf:resource="http://purl.org/dc/dcmitype/StillImage" />
        <dc:title></dc:title>
      </cc:Work>
    </rdf:RDF>
  </metadata>
  <path
     style="color:#000000;clip-rule:nonzero;display:inline;overflow:visible;visibility:visible;opacity:1;isolation:auto;mix-blend-mode:normal;color-interpolation:sRGB;color-interpolation-filters:linearRGB;solid-color:#000000;solid-opacity:1;fill:#6b5453;fill-opacity:1;fill-rule:nonzero;stroke:none;stroke-width:4;stroke-linecap:butt;stroke-linejoin:miter;stroke-miterlimit:4;stroke-dasharray:none;stroke-dashoffset:0;stroke-opacity:1;marker:none;marker-start:none;marker-mid:none;marker-end:none;color-rendering:auto;image-rendering:auto;shape-rendering:auto;text-rendering:auto;enable-background:accumulate"
     d="m 0,0.04296875 0,0.8359375 C 0.01581802,0.86620699 0.02823302,0.86017143 0.04492187,0.84570312 0.2274609,0.64372209 0.23716035,0.31267463 0.31640625,0.04296875 Z M 2.2821769,100.04297 l 2.7178231,0 5.197266,0 c 0.09228,-0.11672 0.216093,-0.242552 0.439453,-0.414064 0.03896,-0.05806 0.05294,-0.130634 0.04492,-0.199218 0.580947,0.09722 0.943892,0.119835 0.986328,0.552734 -7.58e-4,0.0177 0.002,0.04208 0.002,0.06055 l 31.367187,0 c 0.0048,-0.027 0.0029,-0.0518 0.01758,-0.08203 0.142735,-0.212649 0.252188,-0.595151 0.49414,-0.644532 -0.51232,-0.09689 -1.130241,0.540415 -1.503906,-0.134765 0.429518,-0.64514 0.09714,-0.666965 1.238281,-1.488282 1.571039,0.342034 1.627972,-0.02792 2.771485,1.048829 0.106338,0.04884 0.226724,0.05506 0.33789,0.02344 -0.0029,0.546235 0.01,0.971299 -0.09375,1.277348 l 17.146484,0 c 0.128417,-0.112458 0.16599,-0.234375 0.0059,-0.480473 -0.257876,-0.307088 -0.943526,-0.183119 -0.865234,-0.769531 0.550223,-0.197869 0.359312,-0.362873 1.419921,-0.347657 0.71183,0.814499 0.94579,0.794864 1.136719,1.597661 l 29.857422,0 0.517659,0 c 0.373411,-0.222458 0.699152,-0.222458 0.977224,0 l 0.583952,0 c 0.411957,-0.283217 0.934588,-0.334747 1.607999,-0.528323 0.204255,-0.05872 -0.04292,-0.465948 0.313084,-0.472633 0.201749,-0.230004 -0.162996,-0.600576 0.597045,-1.109972 0.572031,-0.383386 0.406361,-1.439433 0.403041,-2.162719 l 0,-0.726357 0,-1.730469 c -0.254442,-0.07453 -0.549981,-0.208039 -0.980473,-0.458984 -0.10493,-0.02159 -0.211542,-0.0025 -0.308593,0.03906 -0.02972,0.372294 0.113365,0.814861 -0.396485,0.935547 C 97.89349,93.338732 97.800871,93.59972 97.398438,92.5 c 0.627183,-1.183228 0.34441,-1.311014 1.464843,-1.986328 0.06305,-0.07433 0.09413,-0.169366 0.09375,-0.265625 0.322245,0.09205 0.58038,0.165095 0.791016,0.255859 0.08479,-0.04101 0.167597,-0.06787 0.251953,-0.103515 l 0,-8.253907 c -0.08566,-0.0066 -0.164181,-0.02378 -0.207031,-0.08203 0.08393,-0.167313 0.191654,-0.213881 0.04687,-0.3125 -0.112031,-0.0578 -0.295349,0.06239 -0.34375,-0.117187 0.135595,-0.124108 0.05967,-0.149246 0.36914,-0.273438 0.06763,0.03322 0.08754,0.03985 0.134766,0.05859 l 0,-21.890625 c -0.07554,2e-5 -0.149787,7.41e-4 -0.269531,0.04687 -0.429719,0.228883 -0.45802,1.074768 -1.134766,0.833984 -0.09633,-0.703365 -0.338119,-0.517597 -0.05273,-1.773437 C 99.341831,58.190784 99.594711,57.927906 100,57.791016 l 0,-9.269532 c -0.02965,0.0068 -0.05676,0.02168 -0.07617,0.04492 -0.155588,-0.231407 -0.265922,-0.362136 -0.130859,-0.517578 0.06624,-0.0575 0.13455,-0.144193 0.207029,-0.216797 l 0,-12.316406 c -0.137865,0.04032 -0.297707,0.05784 -0.599607,0.03125 -0.0563,0.01359 -0.105149,0.04936 -0.138672,0.0957 -0.299951,-0.384737 -0.507598,-0.602745 -0.291016,-0.890625 0.227039,-0.226986 0.454106,-0.674405 0.765625,-0.666015 0.127276,0.267056 0.123002,0.466762 0.26367,0.5 l 0,-19.71875 c -0.205774,0.42248 -0.183042,0.555477 -0.683592,0.845703 -0.03211,0.03658 -0.04821,0.08278 -0.04883,0.130859 -0.39234,-0.119353 -0.640434,-0.166063 -0.630859,-0.46875 0.04623,-0.265888 -0.01507,-0.683151 0.203125,-0.828125 0.286094,0.161041 0.358077,0.354762 0.542968,0.109375 0.110641,-0.191431 -0.08233,-0.523995 0.236329,-0.59375 0.17851,0.214777 0.243543,0.171018 0.380859,0.507812 l 0,-9.5273432 0,-1.0969902 C 99.857502,3.6838338 99.765991,3.425943 100,3.195179 l 0,-1.153155 C 99.381821,1.9447677 98.773337,1.8297307 98.342162,1.3896269 98.17115,1.2921546 98.302962,0.82177642 98.196198,0.68780886 97.894822,0.30964109 97.519372,0.20382224 97.211043,0.08647381 96.562017,-0.16054253 95.656187,0.29645897 95,0.04296375 l -72.429688,0 c 0.138564,0.13809646 0.211549,0.30406347 0.175782,0.55078125 -0.06603,0.13057978 -0.05972,0.39924754 -0.06836,0.4570338 l -0.700079,0.1277975 c -0.641318,0.1540352 -0.47856,0.6270092 -1.650787,0.1421991 -0.517469,-0.2140151 -1.869451,-0.1677 -1.750696,-1.27780665 l -0.310547,0 c 0.03635,0.02674888 0.122533,0.08101589 0.158203,0.10742187 -0.183672,0.183773 -0.349219,0.24968759 -0.505859,0.2421875 -0.04712,-0.15729091 -0.113258,-0.29592624 -0.28711,-0.31640625 l -0.1875,0.38085938 c -0.079,-0.13792108 -0.129782,-0.27448784 -0.28125,-0.4140625 l -12.162109,0 c -0.5852202,0.001195 -1.1704405,0.52430277 -1.7556607,0 l -2.0861362,0 C 1.3305322,0.2651793 1.4509038,0.43735596 1.5644531,1.3554688 0.73714516,2.3079933 0.72412934,2.6354251 0,2.9746094 L 0,5.0429688 0,56.640625 c 0.30957193,-0.212806 0.62857708,-0.426013 0.93554688,-0.431641 0.0666284,-0.0012 0.13307172,0.0078 0.19726562,0.0293 0.100018,0.671473 -0.1254944,1.034817 0.5097656,1.025391 0.452952,-0.06222 0.7513383,-0.800964 1.2695313,-0.369141 -0.143401,0.651065 0.1297911,0.566065 -0.5292969,1.580078 l -0.00195,0 c 0.00685,0.02956 0.018803,0.05334 0.023437,0.08594 2.521e-4,0.352824 0.085682,0.797844 0.083984,1.193359 0.036628,0.0215 0.073712,0.04427 0.1015626,0.101563 -0.069301,0.09301 -0.086724,0.141475 -0.1152344,0.197265 -0.030654,0.158656 -0.088254,0.298974 -0.1992188,0.404297 -0.068291,-0.02414 -0.09056,-0.04038 -0.1503906,-0.06641 -0.03197,0.02185 -0.046372,0.03514 -0.085937,0.06055 -0.4793298,-0.131293 -0.6230978,-0.08502 -0.8476563,-0.242188 -0.049683,0.05101 -0.098736,0.115823 -0.1503906,0.216797 -0.0719407,0.196362 -0.015577,0.426305 0.023437,0.648438 0.2030231,-0.222854 0.3657309,-0.371983 0.9042969,-0.482422 0.05288,-0.03079 0.091395,-0.07967 0.1113281,-0.136719 0.419991,0.298793 0.6967053,0.453637 0.5644531,0.810547 -0.1612448,0.298423 -0.2563027,0.820583 -0.5742187,0.90625 C 1.7936435,61.865732 1.787067,61.607539 1.46875,61.826172 1.260472,62.010148 1.3568367,62.483537 0.94921875,62.439453 0.83176156,62.136805 0.74162834,62.142779 0.70507812,61.787109 0.41961593,61.556857 0.25619016,61.502479 0.06835937,61.322266 0.04527445,61.346315 0.02306226,61.372525 0,61.396484 l 0,33.646485 0,0.374801 c 0.08844294,0.12365 0.04894226,0.220792 0.09209816,0.273508 C 0.16257615,95.77737 0.21925398,95.837368 0,95.924258 l 0,0.41115 c 0.01843469,0.07839 0.13826015,0.129136 0,0.250265 l 0,0.494571 c 0.20624482,0.205799 0.38583961,0.427023 0.39108625,0.720076 0.0051,0.284859 0.38132082,0.43035 0.72219495,0.545383 0.1138733,-0.03462 0.2141757,-0.08096 0.2285157,-0.207031 L 1.0644531,98.001953 c 0.118053,-0.06825 0.2349528,-0.08066 0.3554688,-0.255859 0.208164,0.04183 0.3207781,0.135139 0.3300781,0.283203 -0.240111,0.38938 -0.4530316,0.492494 -0.4589844,0.683594 -0.016596,0.53279 -0.1342068,0.474734 0.408203,0.900386 0.049408,0.03685 0.09929,0.064 0.15625,0.03125 l -0.029297,-0.158199 c 0.06471,0.02824 0.1067504,0.07391 0.2167969,0.07031 0.0465,0.09962 0.041282,0.173296 -0.017578,0.222656 z M 84.341797,0.390625 c 0.224489,-0.03373 0.374321,0.00712 0.480469,0.09375 -0.04859,0.134987 -0.0744,0.26641575 0.03711,0.37109375 l 0.330078,-0.16992187 c -0.0191,0.16325098 -0.08832,0.28466584 -0.0059,0.52734372 -0.190373,0.171037 -0.361919,0.2128844 -0.511719,0.1152344 -0.203304,-0.51254504 -0.262688,-0.717119 -0.330078,-0.9375 z m 2.779297,0.36328125 c 0.257223,-0.0254291 0.44648,0.0532106 0.564453,0.24023437 C 87.637677,1.9019916 87.585756,2.248424 87.535156,2.625 87.175576,2.521131 86.978376,2.3551645 86.878906,2.1523438 87.044544,1.9834906 87.173215,1.8058186 87.078125,1.5722656 l -0.613281,0.027344 c 0.140881,-0.231491 0.33163,-0.3667604 0.375,-0.7871094 0.100725,-0.0313368 0.195509,-0.0501174 0.28125,-0.058594 z M 47.839771,3.2842199 c 0.875235,0.1622647 3.006814,1.2071699 2.740307,1.7587489 l 44.419922,0 0,4.9648432 c 0.02096,-0.051631 0.03446,-0.096938 0.109375,-0.1835932 0.009,-0.02201 0.0073,-0.048012 0,-0.070313 0.20022,-0.0075 0.323342,-0.024103 0.367187,0.1171876 0.02105,0.1301626 0.116705,0.3123166 0.03906,0.4140626 -0.157803,-0.02875 -0.223277,-0.105703 -0.269531,0.03711 -0.02056,0.106049 0.122362,0.22752 -0.01367,0.310546 C 95.129095,10.570193 95.085638,10.560742 95,10.474609 l 0,12.011719 c 0.126858,0.01568 0.247014,0.04757 0.349609,0.121094 -0.121646,0.803928 -0.506,1.140889 0.22461,1.353516 0.381016,0.06209 0.790475,-0.279596 1.154297,-0.253907 0.0035,-0.237721 0.07622,-0.445818 0.404296,-0.550781 0.54083,0.538476 0.626531,0.222844 1.201172,1.482422 -0.631386,1.451897 -0.285813,1.576425 -1.544922,2.474609 -0.06755,0.09336 -0.09713,0.208835 -0.08789,0.322266 -0.110938,-0.02261 -0.199818,-0.04038 -0.300781,-0.06055 -0.34595,0.391987 -0.621731,0.592034 -1.054688,0.390625 C 95.249796,27.703345 95.11772,27.642747 95,27.583984 l 0,29.621094 c 0.01521,0.0026 0.04615,0.01212 0.06055,0.01367 -0.03199,-0.07149 -0.04109,-0.151218 0.02148,-0.255859 0.170377,0.01041 0.243917,-0.01065 0.335938,-0.01563 0.007,-0.01765 0.01669,-0.01918 0.02344,-0.03906 -0.07482,-0.05713 -0.136369,-0.134453 -0.173828,-0.255859 -0.06469,-0.40411 -0.356737,-0.973643 -0.115234,-1.289063 0.489656,0.09001 0.687758,0.33365 0.832031,-0.109375 0.06436,-0.32906 -0.377726,-0.711711 0.04492,-0.96875 0.41771,0.254065 0.423585,0.04414 0.970703,0.742188 -0.135801,0.775128 -0.03632,0.973564 -0.283203,1.36914 0.04456,0.05148 0.06823,0.07119 0.119141,0.132813 -0.178296,1.197701 0.0018,1.400426 -0.519532,2.126953 0.01326,0.03484 0.02192,0.07171 0.04883,0.09766 -0.07617,0.04372 -0.123607,0.05827 -0.189453,0.0957 -0.03392,0.04292 -0.04156,0.06649 -0.08008,0.113282 -0.03574,0.09386 -0.03341,0.197627 0,0.291015 -0.469868,0.02884 -0.827532,0.05533 -1.095703,-0.01758 l 0,35.806641 -19.132812,0 c 0.05972,0.08331 0.101079,0.118547 0.167968,0.21875 0.100613,0.07766 0.2262,0.113731 0.351563,0.107422 -0.246282,1.041975 -0.330822,1.695815 -1.121094,1.720703 -0.231961,-0.0254 -0.520015,-0.01594 -0.796875,-0.01367 -0.06513,0.05501 -0.09453,0.09045 -0.177734,0.15625 -1.334657,-0.227896 -1.368108,0.0849 -2.371094,-0.777344 -0.09133,-0.03703 -0.192843,-0.03669 -0.285156,-0.0059 -0.0035,-0.08712 0.0014,-0.138843 -0.002,-0.21875 -0.126784,0.08006 -0.214369,0.148829 -0.392578,0.24414 -0.07895,0.08393 -0.123527,0.194924 -0.128906,0.308594 -0.918467,-0.314139 -1.502356,-0.446838 -1.455078,-1.162109 0.03493,-0.16672 0.04909,-0.378749 0.06641,-0.578125 l -45.566406,0 c 0.0836,0.05947 0.156581,0.144782 0.205078,0.292969 -0.519924,0.529184 -0.210999,0.60907 -1.43164,1.175781 -1.406837,-0.600703 -1.535525,-0.276586 -2.402344,-1.46875 l -4.375,0 c -0.182755,0.134924 -0.215766,0.224876 -0.814453,0.314453 -0.209838,-0.173079 -0.304579,-0.231833 -0.425782,-0.314453 L 5,95.042969 5,51.71875 c -0.00832,0.0279 -0.013631,0.05707 -0.037109,0.07813 -0.2849,0.03311 -0.3938709,0.03486 -0.5136718,0.03906 0.01331,-0.117329 0.053498,-0.186866 0.1113281,-0.228516 0.061271,0.04263 0.1237862,0.07316 0.1914062,0.03125 l -0.041016,-0.189453 c 0.079445,0.03159 0.1306359,0.08292 0.2636719,0.07422 0.017851,0.03516 0.018686,0.06328 0.025391,0.09375 L 5,20.234375 C 4.6185375,20.40983 4.2944131,20.439222 3.9550781,20.130859 3.5056021,19.589191 2.5728249,19.002576 2.6542969,18.324219 c 0.803724,-0.29531 1.3089236,-0.108449 1.1347656,-0.890625 -0.192721,-0.543507 -1.1781048,-0.724138 -0.7773437,-1.47461 0.4203964,0.0053 0.5872328,-0.07171 0.8261718,-0.08008 C 4.062351,15.871042 4.3769854,15.939388 5,16.175781 l 0,-11.1328122 39.308594,0 c 0.08149,-0.1665388 0.165614,-0.333437 0.324218,-0.5742188 0.02792,-0.106025 0.01389,-0.2189052 -0.0332,-0.3164062 0.45533,-0.077039 0.81881,-0.1527558 1.105469,-0.1328126 0.204541,0.01423 0.368377,0.081092 0.498047,0.2285157 0.331522,-0.3686683 0.718911,-0.5836997 1.229608,-0.4596366 0.03073,-0.1226893 0.04805,-0.3995941 0.407035,-0.5041904 z M 96.666016,2.4472656 c 0.38134,0.266058 0.518071,0.3821764 0.667968,0.5058594 -0.142267,0.128092 -0.267853,0.16785 -0.382812,0.15625 -0.02857,-0.117556 -0.07015,-0.2203775 -0.197266,-0.2421875 L 96.599609,3.140625 c -0.06246,-0.123728 -0.06942,-0.24258 -0.240234,-0.375 0.05443,-0.208834 0.155851,-0.3174324 0.306641,-0.3183594 z m -66.625,0.5957032 c 0.05925,-0.0046 0.111753,0.00398 0.158203,0.023437 -0.0061,0.1052878 0.0011,0.2033863 0.101562,0.2539063 L 30.5,3.1308594 c 0.02061,0.119054 -0.0053,0.2192075 0.103516,0.3730468 -0.09849,0.1602954 -0.209967,0.2250701 -0.335938,0.1875 -0.250285,-0.318842 -0.334234,-0.4505228 -0.427734,-0.5917968 0.0756,-0.035315 0.141919,-0.052043 0.201172,-0.056641 z m 39.103515,1.4238281 c 0.07998,0.01793 0.125961,0.05074 0.150391,0.09375 -0.03401,0.039096 -0.05904,0.079116 -0.03516,0.1289062 l 0.132812,-0.013672 c -0.02773,0.052469 -0.06837,0.085274 -0.07227,0.1777344 -0.08641,0.03273 -0.147866,0.023123 -0.185546,-0.029297 -0.0016,-0.19908 0.0037,-0.2744419 0.0098,-0.3574219 z M 3.3652344,12.765625 c 0.363641,0.09484 0.5530875,0.270621 0.5546875,0.533203 C 3.633559,13.709054 3.5265563,13.826335 3.375,14.017578 3.4553009,14.193164 3.4820034,14.348602 3.3398438,14.5 3.0968767,14.695005 2.830876,15.10346 2.53125,15.0625 2.406363,14.704673 2.4919435,14.481312 2.1445312,14.552734 c -0.2419278,0.08136 -0.3289691,0.516771 -0.6582031,0.333985 0.00662,-0.229356 -0.035283,-0.300701 -0.015625,-0.458985 -0.1041865,-0.113263 -0.150608,-0.238405 -0.1191406,-0.380859 0.539626,-0.49069 0.7645244,-0.661422 1.0058594,-0.847656 0.097641,0.17479 0.1231927,0.317647 0.1230469,0.449219 0.1275363,-0.01358 0.275469,-0.01115 0.5273437,0.03906 0.027727,-0.0036 0.046384,-0.02617 0.070312,-0.03906 0.052757,-0.04881 0.096295,-0.10779 0.1113281,-0.195313 l -0.476562,-0.267578 c 0.215474,-0.108733 0.4217198,-0.122492 0.6523438,-0.419922 z m -1.1523438,2.013672 c 0.092083,0.0083 0.1573964,0.04586 0.2011719,0.146484 0.05213,0.188496 0.2210319,0.442873 0.1230469,0.605469 -0.237321,-0.01681 -0.3436219,-0.120393 -0.3886719,0.09766 -0.01313,0.159689 0.2164089,0.318424 0.029297,0.462891 -0.211841,-0.09854 -0.203177,-2.14e-4 -0.5,-0.302735 0.0302,-0.483741 -0.083139,-0.483152 0.1855468,-0.873046 0.0097,-0.03392 0.00669,-0.06988 -0.00781,-0.101563 0.1469949,-0.02173 0.2653384,-0.04349 0.3574193,-0.03516 z m -1.42773435,3.335937 c 0.116858,0.114089 0.1711385,0.243772 0.41210935,0.326172 0.019041,0.253578 -0.052964,0.414056 -0.2207031,0.472656 -0.526662,-0.151006 -0.723211,-0.227883 -0.9375,-0.308593 0.109698,-0.19709 0.23265831,-0.291326 0.36523438,-0.322266 0.076721,0.120143 0.16442512,0.219513 0.31445312,0.195313 z M 2.2324219,34.480469 c 0.06933,0.01018 0.1254981,0.03386 0.1738281,0.06836 -0.03447,0.119475 -0.049571,0.234049 0.052734,0.31836 l 0.2773437,-0.166016 c -0.00737,0.142272 -0.061503,0.253707 0.023437,0.458984 C 2.6046737,35.318756 2.4592514,35.3632 2.3242179,35.28711 2.1196875,34.85516 2.054995,34.680987 1.984375,34.494141 c 0.096143,-0.02087 0.1787171,-0.02385 0.2480469,-0.01367 z m 1.4960937,14.136719 c 0.412254,0.146188 0.632448,0.352171 0.734375,0.595703 -0.20499,0.185453 -0.3681075,0.384983 -0.2734375,0.664062 l 0.7167969,0.0098 C 4.725785,50.14697 4.4939125,50.29194 4.4140625,50.779297 3.9353145,50.897485 3.6075508,50.81162 3.4414062,50.509766 3.5604343,49.454008 3.6433256,49.052986 3.7285156,48.617188 Z M 2.2851562,73.316406 c 0.388347,0.298152 0.5257333,0.60591 0.3945313,0.921875 -0.892765,0.56203 -1.2556244,0.74714 -1.6464844,0.951172 -0.14207268,-0.410424 -0.11794214,-0.70945 0.00781,-0.939453 0.270911,0.04409 0.5257648,0.04719 0.6835938,-0.199219 L 1.28906,73.488281 c 0.313739,-0.02129 0.5685256,0.06821 0.9960962,-0.171875 z M 1.171875,80.589844 c 0.07281,0.131086 0.081774,0.234592 0.052734,0.320312 -0.094761,0.0012 -0.1817431,0.01617 -0.2207032,0.109375 L 1.1875,81.183594 c -0.105418,0.02596 -0.19901413,0.01198 -0.33007812,0.11914 C 0.70755486,81.224528 0.64220875,81.126992 0.66796875,81.011719 0.93800275,80.767308 1.051107,80.682514 1.171875,80.589844 Z m 95.109375,2.521484 c 0.107514,0.138681 0.136432,0.06892 0.230469,0.373047 -0.186639,0.312546 -0.110354,0.351683 -0.423828,0.519531 -0.01815,0.0193 -0.02811,0.04612 -0.0293,0.07227 -0.211221,-0.07216 -0.346747,-0.103103 -0.335938,-0.267578 0.03007,-0.14378 0.0056,-0.372441 0.126953,-0.447266 0.152647,0.0929 0.187855,0.198424 0.292969,0.06836 0.06372,-0.102093 -0.03596,-0.28631 0.138675,-0.318364 z M 26.945312,95.646484 c 0.143398,0.0498 0.380745,0.05322 0.441407,0.1875 -0.115375,0.144185 -0.228799,0.166098 -0.109375,0.291016 0.09622,0.0788 0.29881,0.0023 0.308594,0.185547 -0.156346,0.09188 -0.08994,0.131285 -0.414063,0.1875 -0.295689,-0.232581 -0.344002,-0.160397 -0.474609,-0.503906 -0.01739,-0.02115 -0.04366,-0.03436 -0.07031,-0.03906 0.101888,-0.206946 0.151205,-0.3414 0.318356,-0.308597 z m 59.144532,1.199219 c 0.197833,0.01251 0.440247,0.05605 0.773437,0.140625 0.102148,-0.0078 0.197874,-0.05553 0.269531,-0.126953 0.41493,0.756767 0.717532,1.1953 0.257813,1.636719 -0.460743,0.332115 -0.981803,1.050096 -1.523437,0.947265 -0.193615,-0.663249 -0.017,-1.060156 -0.65625,-0.96289 -0.448133,0.125312 -0.64635,0.908754 -1.228516,0.544922 0.05465,-0.6763 -0.210038,-0.552504 0.314453,-1.666016 1.010874,-0.304285 1.19947,-0.551217 1.792969,-0.513672 z m -42.529297,2.470703 c 0.118649,0.161711 0.161585,0.289157 0.244141,0.326172 0.04036,-0.01127 0.09141,-0.02238 0.138671,-0.03125 -0.03557,-0.112702 -0.135208,-0.206048 -0.36914,-0.292969 -0.0045,-0.0011 -0.0092,-0.001 -0.01367,-0.002 z"
     id="rect18666"
     inkscape:connector-curvature="0"
     sodipodi:nodetypes="cccccccccccccccccccccccccccccscscccccccccccccccccccccccccccccccccccccccccccccsscccccsccccccccccccccsccccccccccccccccccccccccccsccccscccccsccccccsccccccsccccccscccccccccccccccccccccccccccccccccccccccccccccccccccccccccccccccccccccccccccscccccsccccscccccsccccccscccccccccccccccccccccccscccccccscccccccsccccccscccccccccccccccccccccccccccccccccccccscccccccscccccccc" />
</svg>
