<?xml version="1.0" encoding="UTF-8" standalone="no"?>
<svg
   xmlns:dc="http://purl.org/dc/elements/1.1/"
   xmlns:cc="http://creativecommons.org/ns#"
   xmlns:rdf="http://www.w3.org/1999/02/22-rdf-syntax-ns#"
   xmlns:svg="http://www.w3.org/2000/svg"
   xmlns="http://www.w3.org/2000/svg"
   xmlns:sodipodi="http://sodipodi.sourceforge.net/DTD/sodipodi-0.dtd"
   xmlns:inkscape="http://www.inkscape.org/namespaces/inkscape"
   version="1.1"
   id="svg2"
   viewBox="0 0 100 100"
   preserveAspectRatio="xMinYMin slice"
   height="100"
   width="100"
   inkscape:version="0.91 r"
   sodipodi:docname="rough_border-outer.svg">
  <sodipodi:namedview
     pagecolor="#ffffff"
     bordercolor="#666666"
     borderopacity="1"
     objecttolerance="10"
     gridtolerance="10"
     guidetolerance="10"
     inkscape:pageopacity="0"
     inkscape:pageshadow="2"
     inkscape:window-width="1920"
     inkscape:window-height="1161"
     id="namedview10859"
     showgrid="true"
     inkscape:zoom="5.6568543"
     inkscape:cx="29.947535"
     inkscape:cy="56.366646"
     inkscape:window-x="1920"
     inkscape:window-y="0"
     inkscape:window-maximized="1"
     inkscape:current-layer="svg2"
     inkscape:object-nodes="true"
     inkscape:snap-intersection-paths="true"
     inkscape:snap-smooth-nodes="true"
     inkscape:object-paths="true"
     inkscape:snap-page="true"
     inkscape:snap-bbox="true"
     inkscape:bbox-paths="true"
     inkscape:snap-nodes="true"
     inkscape:bbox-nodes="true"
     fit-margin-top="0"
     fit-margin-left="0"
     fit-margin-right="0"
     fit-margin-bottom="0"
     inkscape:snap-bbox-edge-midpoints="true">
    <inkscape:grid
       type="xygrid"
       id="grid16554"
       originx="3.9e-06"
       originy="-60.042024" />
  </sodipodi:namedview>
  <defs
     id="defs4" />
  <metadata
     id="metadata7">
    <rdf:RDF>
      <cc:Work
         rdf:about="">
        <dc:format>image/svg+xml</dc:format>
        <dc:type
           rdf:resource="http://purl.org/dc/dcmitype/StillImage" />
        <dc:title></dc:title>
      </cc:Work>
    </rdf:RDF>
  </metadata>
  <path
     style="color:#000000;clip-rule:nonzero;display:inline;overflow:visible;visibility:visible;opacity:1;isolation:auto;mix-blend-mode:normal;color-interpolation:sRGB;color-interpolation-filters:linearRGB;solid-color:#000000;solid-opacity:1;fill:#6b5453;fill-opacity:1;fill-rule:nonzero;stroke:none;stroke-width:4;stroke-linecap:butt;stroke-linejoin:miter;stroke-miterlimit:4;stroke-dasharray:none;stroke-dashoffset:0;stroke-opacity:1;marker:none;marker-start:none;marker-mid:none;marker-end:none;color-rendering:auto;image-rendering:auto;shape-rendering:auto;text-rendering:auto;enable-background:accumulate"
     d="m 2.2821769,100.04297 2.7178231,0 5.197266,0 c 0.09228,-0.11672 0.216093,-0.242552 0.439453,-0.414064 0.03896,-0.05806 0.05294,-0.130634 0.04492,-0.199218 0.580947,0.09722 0.943892,0.119835 0.986328,0.552734 -7.58e-4,0.0177 0.002,0.04208 0.002,0.06055 l 31.367187,0 c 0.0048,-0.027 0.0029,-0.0518 0.01758,-0.08203 0.142735,-0.212649 0.252188,-0.595151 0.49414,-0.644532 -0.51232,-0.09689 -1.130241,0.540415 -1.503906,-0.134765 0.429518,-0.64514 0.09714,-0.666965 1.238281,-1.488282 1.571039,0.342034 1.627972,-0.02792 2.771485,1.048829 0.106338,0.04884 0.226724,0.05506 0.33789,0.02344 -0.0029,0.546235 0.01,0.971299 -0.09375,1.277348 l 17.146484,0 c 0.128417,-0.112458 0.16599,-0.234375 0.0059,-0.480473 -0.257876,-0.307088 -0.943526,-0.183119 -0.865234,-0.769531 0.550223,-0.197869 0.359312,-0.362873 1.419921,-0.347657 0.71183,0.814499 0.94579,0.794864 1.136719,1.597661 l 29.857422,0 0.517659,0 c 0.373411,-0.222458 0.699152,-0.222458 0.977224,0 l 0.583952,0 c 0.411957,-0.283217 0.934588,-0.334747 1.607999,-0.528323 0.204255,-0.05872 -0.04292,-0.465948 0.313084,-0.472633 0.201749,-0.230004 -0.162996,-0.600576 0.597045,-1.109972 0.572031,-0.383386 0.406361,-1.439433 0.403041,-2.162719 l 0,-0.726357 0,-1.730469 c -0.254442,-0.07453 -0.549981,-0.208039 -0.980473,-0.458984 -0.10493,-0.02159 -0.211542,-0.0025 -0.308593,0.03906 -0.02972,0.372294 0.113365,0.814861 -0.396485,0.935547 C 97.89349,93.338732 97.800871,93.59972 97.398438,92.5 c 0.627183,-1.183228 0.34441,-1.311014 1.464843,-1.986328 0.06305,-0.07433 0.09413,-0.169366 0.09375,-0.265625 0.322245,0.09205 0.58038,0.165095 0.791016,0.255859 0.08479,-0.04101 0.167597,-0.06787 0.251953,-0.103515 l 0,-8.253907 c -0.08566,-0.0066 -0.164181,-0.02378 -0.207031,-0.08203 0.08393,-0.167313 0.191654,-0.213881 0.04687,-0.3125 -0.112031,-0.0578 -0.295349,0.06239 -0.34375,-0.117187 0.135595,-0.124108 0.05967,-0.149246 0.36914,-0.273438 0.06763,0.03322 0.08754,0.03985 0.134766,0.05859 l 0,-11.639617 c -0.07554,2e-5 -0.149787,7.41e-4 -0.269531,0.04687 -0.429719,0.228883 -0.45802,1.074768 -1.134766,0.833984 -0.09633,-0.703365 -0.338119,-0.517597 -0.05273,-1.773437 C 99.341831,68.441792 99.594711,68.178914 100,68.042024 l 0,-19.52054 c -0.02965,0.0068 -0.05676,0.02168 -0.07617,0.04492 -0.155588,-0.231407 -0.265922,-0.362136 -0.130859,-0.517578 0.06624,-0.0575 0.13455,-0.144193 0.207029,-0.216797 l 0,-1.781448 c -0.137865,0.04032 -0.297707,0.05784 -0.599607,0.03125 -0.0563,0.01359 -0.105149,0.04936 -0.138672,0.0957 -0.299951,-0.384737 -0.507598,-0.602745 -0.291016,-0.890625 0.227039,-0.226986 0.454106,-0.674405 0.765625,-0.666015 0.127276,0.267056 0.123002,0.466762 0.26367,0.5 l 0,-29.300583 c -0.14327,0.125605 -0.476011,-0.229679 -0.683592,-0.107422 -0.03211,0.03658 -0.04821,0.08278 -0.04883,0.130859 -0.39234,-0.119353 -0.640434,-0.166063 -0.630859,-0.46875 0.04623,-0.265888 -0.01507,-0.683151 0.203125,-0.828125 0.286094,0.161041 0.358077,0.354762 0.542968,0.109375 0.110641,-0.191431 -0.08233,-0.523995 0.236329,-0.59375 0.17851,0.214777 0.243543,0.171018 0.380859,0.507812 l 0,-9.5273432 0,-1.0969902 C 99.857502,3.6838338 99.765991,3.425943 100,3.195179 l 0,-1.153155 C 99.707878,1.7305015 99.229172,1.5301819 98.342162,1.3896269 98.081367,1.1762595 98.279927,0.6104867 98.747329,0.44841353 99.015351,0.35547626 99.053988,0.042024 99.000004,0.042024 l -2,0 c -0.694444,0 -1.343817,0.25443497 -2.000004,9.3975e-4 l -39.390625,0 C 55.545404,0.11749168 55.445197,0.1599347 55.42714,0.23819607 55.358465,0.53584374 55.277244,0.50073006 55.007798,0.52103907 54.345081,0.68882523 54.324397,0.20200598 54,0.04296375 l -12.875,0 C 40.928398,0.25830823 41.063482,0.27135832 40.472928,0.37809008 40.034874,0.78982159 38.490818,0.61589825 37.625,0.04296375 l -0.421875,0 c -0.25,0.18030107 -0.5,0.10732378 -0.75,0 l -13.882813,0 c 0.138564,0.13809646 0.211549,0.30406347 0.175782,0.55078125 -0.06603,0.13057978 -0.05972,0.39924754 -0.06836,0.4570338 L 21.977655,1.1785763 C 21.336337,1.3326115 21.60847,1.0243355 20.436243,0.5395254 19.918774,0.3255103 19.000004,0.3874504 18.576172,0.04296875 l -0.310547,0 c 0.03635,0.02674888 0.122533,0.08101589 0.158203,0.10742187 -0.183672,0.183773 -0.349219,0.24968759 -0.505859,0.2421875 -0.04712,-0.15729091 -0.113258,-0.29592624 -0.28711,-0.31640625 l -0.1875,0.38085938 c -0.079,-0.13792108 -0.129782,-0.27448784 -0.28125,-0.4140625 l -12.162109,0 c -0.5852202,0.001195 -1.1704405,0.52430277 -1.7556607,0 l -2.0861362,0 C 1.3305322,0.2651793 1.4509038,0.43735596 1.5644531,1.3554688 0.73714516,2.3079933 0.72412934,2.6354251 0,2.9746094 L 0,5.0429688 0,30.8125 C 0.33885125,31.677207 0.48865204,32.466294 0,33 l 0,7.042024 c 0.30957193,-0.212806 0.36178086,0.103805 0.47150806,0.24232 0.11229381,0.141755 0.15031597,0.406458 0.13097435,0.526485 -0.48569554,0.710273 0.18567017,2.451537 0.58892659,2.799558 -0.049683,0.05101 -0.098736,0.115823 -0.1503906,0.216797 -0.0719407,0.196362 -0.015577,0.426305 0.023437,0.648438 0.2030231,-0.222854 0.3657309,-0.371983 0.9042969,-0.482422 0.4647758,-0.246989 0.6087999,0.566468 0.6757812,0.673828 -0.1612448,0.298423 -0.2563027,0.820583 -0.5742187,0.90625 C 1.7936435,45.267131 1.787067,45.008938 1.46875,45.227571 1.260472,45.411547 1.3568367,45.884936 0.94921875,45.840852 0.83176156,45.538204 0.74162834,45.544178 0.70507812,45.188508 0.41961593,44.958256 0.18783469,46.222237 3.9e-6,46.042024 c -0.02308492,0.02405 -0.04529711,0.05026 -0.06835937,0.07422 l 0.0304864,21.821222 c 0.18183814,1.223292 0.42745941,2.778154 0.46485675,3.62686 0.39185387,0.688629 0.57115458,0.72968 -0.0567534,1.439528 -0.0781576,0.461574 -0.1944709,0.910677 -0.39919669,1.308687 l 0.01909355,13.666596 c 0.05313871,0.274724 0.29598661,0.491076 0.00121946,0.872848 l 4.1692e-4,0.298419 c 0.092574,0.110444 0.14139683,0.220888 4.629e-4,0.331332 L 0,95.042969 0,95.41777 c 0.08844294,0.12365 0.04894226,0.220792 0.09209816,0.273508 C 0.16257615,95.77737 0.21925398,95.837368 0,95.924258 l 0,0.41115 c 0.01843469,0.07839 0.13826015,0.129136 0,0.250265 l 0,0.494571 c 0.20624482,0.205799 0.37479107,0.189479 0.38003771,0.482532 0.0051,0.28486 -0.23640275,0.300978 -0.38003381,0.479248 l -3.9e-6,1.5 c 0.29965905,-0.131821 0.50036146,-0.294566 0.56445705,-0.5 0.0599364,-0.192104 0.23333083,-0.260348 0.35384683,-0.435547 0.20816402,0.04183 0.32077812,0.135139 0.33007812,0.283203 l 0.037109,0.152344 c 0.040314,0.165501 0.1917253,0.604116 0.4137273,0.571253 0.049408,0.03685 0.09929,0.064 0.15625,0.03125 l -0.029297,-0.158199 c 0.06471,0.02824 0.1067504,0.07391 0.2167969,0.07031 0.0465,0.09962 0.041282,0.173296 -0.017578,0.222656 z M 95,5.0429688 95,95.042964 5,95.042969 5,5.0429688 Z m 1.666016,-2.5957032 c 0.38134,0.266058 0.518071,0.3821764 0.667968,0.5058594 -0.142267,0.128092 -0.267853,0.16785 -0.382812,0.15625 -0.02857,-0.117556 -0.07015,-0.2203775 -0.197266,-0.2421875 L 96.599609,3.140625 c -0.06246,-0.123728 -0.06942,-0.24258 -0.240234,-0.375 0.05443,-0.208834 0.155851,-0.3174324 0.306641,-0.3183594 z M 0.78515625,18.115234 c 0.116858,0.114089 0.1711385,0.243772 0.41210935,0.326172 0.019041,0.253578 -0.052964,0.414056 -0.2207031,0.472656 -0.526662,-0.151006 -0.723211,-0.227883 -0.9375,-0.308593 0.109698,-0.19709 0.23265831,-0.291326 0.36523438,-0.322266 0.076721,0.120143 0.16442512,0.219513 0.31445312,0.195313 z M 0.5917969,38.167969 c 0.06933,0.01018 0.1254981,0.03386 0.1738281,0.06836 -0.03447,0.119475 -0.049571,0.234049 0.052734,0.31836 l 0.2773437,-0.166016 c -0.00737,0.142272 -0.061503,0.253707 0.023437,0.458984 C 0.9640487,39.006256 0.8186264,39.0507 0.6835929,38.97461 0.4790625,38.54266 0.41437,38.368487 0.34375,38.181641 c 0.096143,-0.02087 0.1787171,-0.02385 0.2480469,-0.01367 z M 43.560547,99.316406 c 0.118649,0.161711 0.161585,0.289157 0.244141,0.326172 0.04036,-0.01127 0.09141,-0.02238 0.138671,-0.03125 -0.03557,-0.112702 -0.135208,-0.206048 -0.36914,-0.292969 -0.0045,-0.0011 -0.0092,-0.001 -0.01367,-0.002 z"
     id="rect18666"
     inkscape:connector-curvature="0"
     sodipodi:nodetypes="ccccccccccccccccccccccccscscccccccccccccccccccccccccccccccccccccccccccccsssccscccccccccccsccccccccccccccccaccccccccccccccccccccccsccccsccsccscccccccccccscccccscccccsccccccscccccccc" />
</svg>
