<?xml version="1.0" encoding="UTF-8" standalone="no"?>
<svg
   xmlns:dc="http://purl.org/dc/elements/1.1/"
   xmlns:cc="http://creativecommons.org/ns#"
   xmlns:rdf="http://www.w3.org/1999/02/22-rdf-syntax-ns#"
   xmlns:svg="http://www.w3.org/2000/svg"
   xmlns="http://www.w3.org/2000/svg"
   xmlns:sodipodi="http://sodipodi.sourceforge.net/DTD/sodipodi-0.dtd"
   xmlns:inkscape="http://www.inkscape.org/namespaces/inkscape"
   version="1.1"
   id="svg2"
   viewBox="0 0 100 100"
   preserveAspectRatio="xMinYMin slice"
   height="100"
   width="100"
   inkscape:version="0.91 r"
   sodipodi:docname="rough_border-inner.svg">
  <sodipodi:namedview
     pagecolor="#ffffff"
     bordercolor="#666666"
     borderopacity="1"
     objecttolerance="10"
     gridtolerance="10"
     guidetolerance="10"
     inkscape:pageopacity="0"
     inkscape:pageshadow="2"
     inkscape:window-width="1920"
     inkscape:window-height="1161"
     id="namedview10859"
     showgrid="true"
     inkscape:zoom="7.4167644"
     inkscape:cx="71.094749"
     inkscape:cy="34.733626"
     inkscape:window-x="1920"
     inkscape:window-y="0"
     inkscape:window-maximized="1"
     inkscape:current-layer="svg2"
     inkscape:object-nodes="true"
     inkscape:snap-intersection-paths="false"
     inkscape:snap-smooth-nodes="false"
     inkscape:object-paths="true"
     inkscape:snap-page="true"
     inkscape:snap-bbox="true"
     inkscape:bbox-paths="true"
     inkscape:snap-nodes="true"
     inkscape:bbox-nodes="true"
     fit-margin-top="0"
     fit-margin-left="0"
     fit-margin-right="0"
     fit-margin-bottom="0"
     inkscape:snap-bbox-edge-midpoints="true">
    <inkscape:grid
       type="xygrid"
       id="grid16554"
       originx="3.9e-06"
       originy="-60.042024" />
  </sodipodi:namedview>
  <defs
     id="defs4" />
  <metadata
     id="metadata7">
    <rdf:RDF>
      <cc:Work
         rdf:about="">
        <dc:format>image/svg+xml</dc:format>
        <dc:type
           rdf:resource="http://purl.org/dc/dcmitype/StillImage" />
        <dc:title></dc:title>
      </cc:Work>
    </rdf:RDF>
  </metadata>
  <path
     style="color:#000000;clip-rule:nonzero;display:inline;overflow:visible;visibility:visible;opacity:1;isolation:auto;mix-blend-mode:normal;color-interpolation:sRGB;color-interpolation-filters:linearRGB;solid-color:#000000;solid-opacity:1;fill:#6b5453;fill-opacity:1;fill-rule:nonzero;stroke:none;stroke-width:4;stroke-linecap:butt;stroke-linejoin:miter;stroke-miterlimit:4;stroke-dasharray:none;stroke-dashoffset:0;stroke-opacity:1;marker:none;marker-start:none;marker-mid:none;marker-end:none;color-rendering:auto;image-rendering:auto;shape-rendering:auto;text-rendering:auto;enable-background:accumulate"
     d="M 100,100.04202 100,0.042024 3.9e-6,0.042024 0,100 Z M 47.839771,3.2842199 c 0.875235,0.1622647 3.006814,1.2071699 2.740307,1.7587489 l 44.419922,0 c 0.312155,-0.00779 0.389096,0.092646 0.276709,0.2867374 -0.06777,0.1170386 0.156825,0.2998917 0.147136,0.4043524 C 95.406819,5.9176179 95.134544,6.0830724 95,5.9957618 l 0,4.0120502 c 0.02096,-0.051631 0.03446,-0.096938 0.109375,-0.1835932 0.009,-0.02201 0.0073,-0.048012 0,-0.070313 0.20022,-0.0075 0.323342,-0.024103 0.367187,0.1171876 0.02105,0.1301626 0.116705,0.3123166 0.03906,0.4140626 -0.157803,-0.02875 -0.223277,-0.105703 -0.269531,0.03711 -0.02056,0.106049 0.122362,0.22752 -0.01367,0.310546 C 95.129095,10.570193 95.085638,10.560742 95,10.474609 l 0,12.011719 c 0.126858,0.01568 0.247014,0.04757 0.349609,0.121094 -0.121646,0.803928 -0.506,1.140889 0.22461,1.353516 0.381016,0.06209 0.790475,-0.279596 1.154297,-0.253907 0.0035,-0.237721 0.07622,-0.445818 0.404296,-0.550781 0.54083,0.538476 0.626531,0.222844 1.201172,1.482422 -0.631386,1.451897 -0.285813,1.576425 -1.544922,2.474609 -0.06755,0.09336 -0.09713,0.208835 -0.08789,0.322266 -0.110938,-0.02261 -0.199818,-0.04038 -0.300781,-0.06055 -0.34595,0.391987 -0.621731,0.592034 -1.054688,0.390625 C 95.249796,27.703345 95.11772,27.642747 95,27.583984 l 0,29.621094 c 0.01521,0.0026 0.04615,0.01212 0.06055,0.01367 -0.03199,-0.07149 -0.04109,-0.151218 0.02148,-0.255859 0.170377,0.01041 0.243917,-0.01065 0.335938,-0.01563 0.007,-0.01765 0.01669,-0.01918 0.02344,-0.03906 -0.07482,-0.05713 -0.136369,-0.134453 -0.173828,-0.255859 -0.06469,-0.40411 -0.356737,-0.973643 -0.115234,-1.289063 0.489656,0.09001 0.687758,0.33365 0.832031,-0.109375 0.06436,-0.32906 -0.377726,-0.711711 0.04492,-0.96875 0.41771,0.254065 0.423585,0.04414 0.970703,0.742188 -0.135801,0.775128 -0.03632,0.973564 -0.283203,1.36914 0.04456,0.05148 0.06823,0.07119 0.119141,0.132813 -0.178296,1.197701 0.0018,1.400426 -0.519532,2.126953 0.01326,0.03484 0.02192,0.07171 0.04883,0.09766 -0.07617,0.04372 -0.123607,0.05827 -0.189453,0.0957 -0.03392,0.04292 -0.04156,0.06649 -0.08008,0.113282 -0.03574,0.09386 -0.03341,0.197627 0,0.291015 -0.469868,0.02884 -0.827532,0.05533 -1.095703,-0.01758 l 0,35.293603 c 0.220373,0.259162 0.08382,0.375553 0,0.513038 l -0.340306,0 c -0.282258,0.296337 -0.62043,0.173313 -0.965307,0 l -17.827199,0 c 0.05972,0.08331 0.101079,0.118547 0.167968,0.21875 0.100613,0.07766 0.2262,0.113731 0.351563,0.107422 -0.246282,1.041975 -0.330822,1.695815 -1.121094,1.720703 -0.231961,-0.0254 -0.520015,-0.01594 -0.796875,-0.01367 -0.06513,0.05501 -0.09453,0.09045 -0.177734,0.15625 -1.334657,-0.227896 -1.368108,0.0849 -2.371094,-0.777344 -0.09133,-0.03703 -0.192843,-0.03669 -0.285156,-0.0059 -0.0035,-0.08712 0.0014,-0.138843 -0.002,-0.21875 -0.126784,0.08006 -0.214369,0.148829 -0.392578,0.24414 -0.07895,0.08393 -0.123527,0.194924 -0.128906,0.308594 -0.918467,-0.314139 -1.502356,-0.446838 -1.455078,-1.162109 0.03493,-0.16672 0.04909,-0.378749 0.06641,-0.578125 l -45.566406,0 c 0.0836,0.05947 0.156581,0.144782 0.205078,0.292969 -0.519924,0.529184 -0.210999,0.60907 -1.43164,1.175781 -1.406837,-0.600703 -1.535525,-0.276586 -2.402344,-1.46875 l -4.375,0 c -0.182755,0.134924 -0.215766,0.224876 -0.814453,0.314453 -0.209838,-0.173079 -0.304579,-0.231833 -0.425782,-0.314453 L 5,95.042969 5,51.71875 c -0.00832,0.0279 -0.013631,0.05707 -0.037109,0.07813 -0.2849,0.03311 -0.3938709,0.03486 -0.5136718,0.03906 0.01331,-0.117329 0.053498,-0.186866 0.1113281,-0.228516 0.061271,0.04263 0.1237862,0.07316 0.1914062,0.03125 l -0.041016,-0.189453 c 0.079445,0.03159 0.1306359,0.08292 0.2636719,0.07422 0.017851,0.03516 0.018686,0.06328 0.025391,0.09375 L 5,20.234375 C 4.6185375,20.40983 4.2944131,20.439222 3.9550781,20.130859 3.5056021,19.589191 2.5728249,19.002576 2.6542969,18.324219 c 0.803724,-0.29531 1.3089236,-0.108449 1.1347656,-0.890625 -0.192721,-0.543507 -1.1781048,-0.724138 -0.7773437,-1.47461 0.4203964,0.0053 0.5872328,-0.07171 0.8261718,-0.08008 C 4.062351,15.871042 4.3769854,15.939388 5,16.175781 L 5,6.257944 C 4.6904928,6.0546166 4.5227595,5.8115925 5,5.3879757 l 0,-0.3450069 39.308594,0 c 0.08149,-0.1665388 0.165614,-0.333437 0.324218,-0.5742188 0.02792,-0.106025 0.01389,-0.2189052 -0.0332,-0.3164062 0.45533,-0.077039 0.81881,-0.1527558 1.105469,-0.1328126 0.204541,0.01423 0.368377,0.081092 0.498047,0.2285157 0.331522,-0.3686683 0.718911,-0.5836997 1.229608,-0.4596366 0.03073,-0.1226893 0.04805,-0.3995941 0.407035,-0.5041904 z M 30.041016,3.0429688 c 0.05925,-0.0046 0.111753,0.00398 0.158203,0.023437 -0.0061,0.1052878 0.0011,0.2033863 0.101562,0.2539063 L 30.5,3.1308594 c 0.02061,0.119054 -0.0053,0.2192075 0.103516,0.3730468 -0.09849,0.1602954 -0.209967,0.2250701 -0.335938,0.1875 -0.250285,-0.318842 -0.334234,-0.4505228 -0.427734,-0.5917968 0.0756,-0.035315 0.141919,-0.052043 0.201172,-0.056641 z m 39.103515,1.4238281 c 0.07998,0.01793 0.125961,0.05074 0.150391,0.09375 -0.03401,0.039096 -0.05904,0.079116 -0.03516,0.1289062 l 0.132812,-0.013672 c -0.02773,0.052469 -0.06837,0.085274 -0.07227,0.1777344 -0.08641,0.03273 -0.147866,0.023123 -0.185546,-0.029297 -0.0016,-0.19908 0.0037,-0.2744419 0.0098,-0.3574219 z M 3.7285153,48.617188 c 0.412254,0.146188 0.632448,0.352171 0.734375,0.595703 -0.20499,0.185453 -0.3681075,0.384983 -0.2734375,0.664062 l 0.7167969,0.0098 C 4.725785,50.14697 4.4939125,50.29194 4.4140625,50.779297 3.9353145,50.897485 3.6075508,50.81162 3.4414062,50.509766 3.5604343,49.454008 3.6433256,49.052986 3.7285153,48.617188 Z M 96.28125,83.111328 c 0.107514,0.138681 0.136432,0.06892 0.230469,0.373047 -0.186639,0.312546 -0.110354,0.351683 -0.423828,0.519531 -0.01815,0.0193 -0.02811,0.04612 -0.0293,0.07227 -0.211221,-0.07216 -0.346747,-0.103103 -0.335938,-0.267578 0.03007,-0.14378 0.0056,-0.372441 0.126953,-0.447266 0.152647,0.0929 0.187855,0.198424 0.292969,0.06836 0.06372,-0.102093 -0.03596,-0.28631 0.138675,-0.318364 z M 26.945312,95.646484 c 0.143398,0.0498 0.380745,0.05322 0.441407,0.1875 -0.115375,0.144185 -0.228799,0.166098 -0.109375,0.291016 0.09622,0.0788 0.29881,0.0023 0.308594,0.185547 -0.156346,0.09188 -0.08994,0.131285 -0.414063,0.1875 -0.295689,-0.232581 -0.344002,-0.160397 -0.474609,-0.503906 -0.01739,-0.02115 -0.04366,-0.03436 -0.07031,-0.03906 0.101888,-0.206946 0.151205,-0.3414 0.318356,-0.308597 z"
     id="rect18666"
     inkscape:connector-curvature="0"
     sodipodi:nodetypes="ccccccccsscccccccccccccccccccccccccccccccccccccccccccccccccccccccccccccccccccccccccccscccccccsccccccccccsccccccccccccccccccccccccccccccsc" />
</svg>
